<?xml version="1.0" encoding="UTF-8"?>
<svg id="_カラー" data-name="カラー" xmlns="http://www.w3.org/2000/svg" xmlns:xlink="http://www.w3.org/1999/xlink" viewBox="0 0 840 600">
  <defs>
    <style>
      .cls-1 {
        clip-path: url(#clippath);
      }

      .cls-2 {
        fill: none;
      }

      .cls-2, .cls-3, .cls-4, .cls-5, .cls-6, .cls-7 {
        stroke-width: 0px;
      }

      .cls-3 {
        fill: rgba(179, 179, 179, .5);
      }

      .cls-4 {
        fill: #3fa9f5;
      }

      .cls-5 {
        fill: #b3b3b3;
      }

      .cls-6 {
        fill: #ff7bac;
      }

      .cls-7 {
        fill: #fff;
      }
    </style>
    <clipPath id="clippath">
      <path id="_ロゴ文字のみ" data-name="ロゴ文字のみ" class="cls-2" d="M424.8,289.7c1.5.9,3.2,1.4,5.1,1.7,2,.3,4,.2,6-.3,2.1-.4,3.9-1.2,5.6-2.2,0,.2-.1.4-.2.7,0,.3-.2.9-.5,1.9-1.5,0-3,.2-4.5.5-1.5.3-2.9.7-4,1.4-1.1.7-1.9,1.7-2.3,3-.2,1.4,0,2.6.9,3.7.8,1,1.9,1.7,3.3,1.8,1.5.2,2.7,0,3.8-.7s2-1.6,2.8-2.8c.8-1.2,1.4-2.6,2-4.1.4,0,.6,0,.8.1s.2,0,.3,0c.5,0,.9,0,1.2-.2.3-.2.5-.5.5-.9.3-1-.3-1.6-1.8-1.8.3-.8.5-1.8.7-2.9.2-1.1.4-2.3.6-3.5.3-2.3.5-4.5.6-6.9.1-2.3,0-4.3,0-6,0-.4-.1-.7-.3-.9-.2-.2-.5-.4-1.1-.5-1.1-1.5-2.4-2.6-4-3.5-1.6-.9-3.3-1.4-5.2-1.7-2.7-.4-5.2-.1-7.5.7-2.3.9-4.2,2.2-5.7,4-1.5,1.8-2.5,4-2.8,6.7-.3,2.4,0,4.8,1,7,1,2.3,2.6,4.1,4.8,5.4ZM438.6,296.7c-.5.8-1.1,1.4-1.7,1.9-.6.5-1.3.7-2.1.6-.5,0-1-.3-1.3-.7-.4-.4-.5-.8-.4-1.3,0-.7.5-1.2,1.3-1.6s1.6-.6,2.7-.8c1-.2,2-.3,2.9-.4-.3.8-.7,1.5-1.2,2.3ZM422.1,277.8c.3-2,.9-3.8,2-5.2,1-1.5,2.4-2.6,4.1-3.3,1.7-.7,3.6-1,5.7-.8,1.2.2,2.4.5,3.6,1s2.3,1.2,3.2,2c1,.8,1.6,1.7,2,2.8,0,.4,0,1.1,0,2s0,1.9,0,3c0,1.1,0,2.1-.1,3.1,0,1-.1,1.7-.2,2.2-1.5,1.5-3.4,2.6-5.6,3.3-2.2.7-4.3.9-6.4.6-1.2-.2-2.2-.5-3.2-.9-1.9-.9-3.4-2.2-4.2-4-.9-1.8-1.2-3.7-.9-5.8ZM453.6,279.4c-.3,2.2.1,3.8,1.2,5,1.1,1.2,2.8,2.2,5.2,2.9,1.7.5,3.4,1,5.1,1.4,1.7.4,3.2.9,4.6,1.5,1.4.6,2.5,1.3,3.2,2.1.8.9,1.1,2,.9,3.3-.2,1.3-.7,2.4-1.6,3.2-.9.8-2,1.4-3.3,1.7s-2.8.3-4.3.1c-1.2-.2-2.4-.4-3.6-.8-1.2-.4-2.4-.8-3.6-1.4-.6-.3-.9-.7-.8-1.3.1-1,.6-1.4,1.4-1.3.2,0,.3,0,.5.1,1.5.6,2.7,1.1,3.6,1.4s1.8.5,2.6.7c1,.1,1.9.1,2.9,0,.9-.2,1.7-.5,2.4-.9.7-.4,1-1,1.1-1.7,0-.7-.2-1.3-.8-1.8-.6-.5-1.5-.9-2.7-1.3-1.1-.4-2.4-.8-3.9-1.1s-2.9-.8-4.5-1.2c-3-.9-5.2-2.3-6.7-3.9-1.4-1.7-2-4-1.6-7,.2-1.9.9-3.5,1.9-4.8,1-1.3,2.3-2.4,3.9-3.2,1.6-.8,3.3-1.4,5.2-1.6,1.9-.3,3.8-.3,5.8,0,1.7.2,3.4.7,5,1.4,1.6.7,3,1.6,4.2,2.6.4.4.6.8.5,1.1,0,.3-.2.6-.4.8-.2.2-.4.3-.6.4s-.4,0-.6,0c-.3,0-.5-.1-.7-.3-1-.9-2.2-1.6-3.5-2s-2.8-.8-4.2-1c-2.3-.3-4.4-.3-6.5.2-2,.4-3.7,1.2-5,2.4s-2.1,2.7-2.4,4.6ZM490.4,287.6c-1.9.8-3.3,1.8-4.3,2.9.8,1.1,1.8,2.1,3.2,3.2,1.4,1.1,2.9,2.1,4.5,3,1.7,1,3.4,1.9,5.1,2.8,1.7.9,3.3,1.7,4.8,2.4.6.4.9.9.8,1.5,0,.1,0,.3-.2.5-.3.6-.8.9-1.4.8,0,0-.3,0-.5-.2-.1,0-.7-.4-1.7-.9-1-.5-2.3-1.2-3.8-2s-3.1-1.7-4.8-2.7c-1.7-1-3.2-2-4.7-3.1-1.5-1.1-2.6-2.2-3.5-3.2,0,1.5,0,2.8-.1,3.9,0,1,0,2,0,2.8,0,.8,0,1.6,0,2.3,0,.5-.2.9-.5,1.2-.4.2-.7.3-1.1.3-.7,0-1.1-.6-1.2-1.4,0-4,0-8.2.4-12.7.3-4.4.8-8.8,1.3-13.1.3-2.6.7-5.1,1.1-7.5,0-.5.3-.8.6-1,.4-.2.7-.2,1-.2.4,0,.7.3.9.6.2.3.3.7.2,1.1-.1.9-.3,2.1-.6,3.7-.2,1.6-.5,3.3-.7,5.1-.2,1.5-.4,2.9-.6,4.3-.2,1.4-.3,2.7-.4,3.8,0,1.1-.2,1.9-.2,2.5.9-.9,2.2-1.8,3.9-2.7,1.7-.8,3.5-1.6,5.5-2.2,2-.7,3.9-1.2,5.8-1.7,1.9-.5,3.6-.8,5.1-1.1.2,0,.3,0,.4,0,.4,0,.7.2,1,.6.3.3.4.7.3,1.1,0,.3-.2.5-.4.7-.2.2-.5.4-.9.4-3,.7-5.7,1.4-8.2,2s-4.7,1.4-6.5,2.2ZM536.7,292.5c.2-1.3,0-2.6-.5-3.9-.5-1.3-1.2-2.6-2.2-3.7-1-1.1-2.1-2.1-3.4-2.9-1.3-.8-2.6-1.2-4-1.4-1.8-.3-3.5-.2-5.1.3-1.6.5-3.1,1.2-4.4,2.3-1.3,1-2.4,2.3-3.3,3.8-.9,1.5-1.4,3.1-1.6,4.8-.2,1.6,0,3.2.6,4.8.6,1.5,1.5,3,2.7,4.2,1.2,1.3,2.6,2.3,4.1,3.1,1.5.8,3.1,1.3,4.8,1.6,1.1.1,2.3.1,3.4,0,.1,0,.2,0,.4,0,.4,0,.7.2,1,.5.3.3.4.7.3,1.1,0,.3-.1.5-.3.7-.2.2-.4.4-.8.4-.8.1-1.6.2-2.4.2-.8,0-1.6,0-2.4-.1-2.1-.3-4-.9-5.8-1.9-1.8-1-3.4-2.2-4.8-3.8-1.3-1.5-2.3-3.3-3-5.2-.6-1.9-.8-4-.5-6.1.4-3,1.4-5.6,3.1-7.7,1.7-2.2,3.7-3.7,6.3-4.8,2.5-1,5.2-1.3,8.1-.9,1.8.2,3.6.8,5.2,1.8s3,2.1,4.1,3.6c1.2,1.4,2,3.1,2.6,4.8s.7,3.6.4,5.5c-.2,1.6-.9,2.7-2,3.4s-2.5,1-4.2,1.1c-1.7,0-3.5,0-5.5-.3-1.3-.2-2.8-.4-4.4-.7-1.6-.3-3.2-.7-4.8-1-1.5-.4-2.9-.7-4-1-.4-.1-.7-.3-.9-.6-.2-.3-.2-.6-.2-.9,0-.4.3-.8.6-1.1.3-.3.8-.3,1.3-.2.6.2,1.4.5,2.6.8,1.2.3,2.5.6,3.9.9s2.8.6,4.1.8c1.3.2,2.4.4,3.2.5,2.4.2,4.2.2,5.4-.2,1.3-.4,2-1.1,2.1-2.4ZM548.5,290.9c-.1,1-.3,2.2-.5,3.8,1-2.1,2.2-3.8,3.7-5.3,1.5-1.5,3.3-2.6,5.2-3.3,1.9-.7,3.9-.9,5.9-.6,2.6.4,4.8,1.2,6.5,2.7,1.7,1.4,2.9,3.3,3.6,5.5.7,2.2.9,4.7.5,7.5-.3,2.1-.7,4.2-1.4,6.1-.6,1.9-1.4,3.9-2.3,5.9-.1.3-.3.6-.6.7s-.5.2-.8.1c-.4,0-.8-.2-1-.5-.3-.3-.4-.7-.3-1.1,0-.1,0-.3.2-.5.8-1.6,1.4-3.3,2-5.1.6-1.8,1-3.6,1.2-5.3.5-3.4.1-6.2-1-8.4-1.1-2.2-3.2-3.6-6.2-4.2-2.3-.4-4.3,0-6.1.9-1.8,1-3.4,2.5-4.8,4.3-1.2,1.7-2.3,3.8-3.1,6.1s-1.4,4.6-1.7,6.8c0,.3,0,.6-.1,1,0,.3,0,.7,0,1,0,.6-.3,1-.7,1.1-.4.2-.7.3-1.1.2-.8-.1-1.2-.6-1.1-1.6,0-2,.1-4.3.3-6.8.2-2.5.3-5,.6-7.5s.5-4.8.8-6.9c0-.6.2-1.2.2-1.7,0-.5.2-1,.3-1.5,0-.5.3-.9.7-1.1s.7-.2,1-.1c.4,0,.7.2.9.5.2.3.3.7.3,1.1-.1,1.2-.3,2.3-.4,3.2-.1.9-.2,1.9-.4,2.9ZM579.8,314.9c-.6-.9-.8-1.8-.7-2.8.1-1.1.6-2,1.4-2.5.8-.6,1.8-.8,2.9-.6,1.2.2,2.1.6,2.7,1.4s.8,1.7.6,2.7c-.2,1.1-.6,2-1.4,2.6-.8.6-1.8.8-2.9.6-1.2-.2-2.1-.7-2.7-1.5ZM628.1,294c-2.1-1.5-4.7-2.5-7.9-2.9-3.1-.4-5.9-.2-8.3.8-2.4.9-4.4,2.4-6,4.5s-2.5,4.6-2.9,7.7c-.4,3-.1,5.6.8,8,1,2.4,2.5,4.4,4.6,6,2.1,1.6,4.7,2.6,7.8,3,3.1.4,5.9.2,8.3-.8,2.4-.9,4.4-2.4,6-4.5,1.5-2.1,2.5-4.6,2.9-7.7.4-3.1.2-5.8-.7-8.2-.9-2.4-2.4-4.4-4.5-5.9ZM630.4,307.7c-.5,3.7-1.9,6.5-4.3,8.3-2.4,1.8-5.5,2.5-9.4,2-2.3-.3-4.4-1.1-6.1-2.3-1.7-1.2-3-2.8-3.8-4.7-.8-1.9-1-4.1-.7-6.6.5-3.7,2-6.5,4.5-8.4,2.5-1.8,5.6-2.5,9.3-2s6.6,1.9,8.5,4.3c1.9,2.4,2.6,5.5,2.1,9.3ZM667.6,304.1c-.1,1-.6,1.4-1.6,1.2-.2,0-.4,0-.5-.1-1.5-.7-3.1-1.2-4.9-1.4-2.6-.3-4.9-.1-6.8.7-1.9.8-3.5,2.1-4.9,3.8-1.3,1.7-2.4,3.8-3.3,6.1-.8,2.4-1.5,5-1.9,7.8,0,.5-.3.9-.6,1.1-.3.2-.7.3-1,.3-.4,0-.7-.2-1-.5-.2-.3-.3-.7-.3-1.1.1-1.8.2-3.7.3-5.7,0-2.1,0-4.2,0-6.3,0-2.1,0-4.2-.2-6.2-.1-2-.3-3.7-.5-5.3,0-.3,0-.4,0-.5,0-.4.2-.7.6-.9.3-.2.7-.2,1-.2.3,0,.6.2.8.4s.4.5.4.8c.2,1.2.4,2.5.5,4.1.1,1.6.2,3.1.2,4.7s0,3,0,4.1c.9-2.4,2.2-4.5,3.9-6.1s3.6-2.8,5.8-3.5c2.2-.7,4.5-.9,7-.6,2,.3,4,.9,5.9,1.9.6.4.9.8.8,1.4ZM696.2,318.7c.3-2.3.5-4.5.6-6.9.1-2.3,0-4.3,0-6,0-.4-.1-.7-.3-.9-.2-.2-.5-.4-1.1-.5-1.1-1.5-2.4-2.6-4-3.5-1.6-.9-3.3-1.4-5.2-1.7-2.7-.4-5.2-.1-7.5.7-2.3.9-4.2,2.2-5.7,4-1.5,1.8-2.5,4-2.8,6.6-.3,2.4,0,4.8,1,7,1,2.3,2.6,4.1,4.8,5.4,1.5.9,3.2,1.4,5.1,1.7,2,.3,4,.2,6-.3,2.1-.4,3.9-1.2,5.6-2.2,0,.2-.1.4-.2.7,0,.3-.2.9-.5,1.9-1.5,0-3,.2-4.5.5s-2.9.7-4,1.4-1.9,1.7-2.3,3c-.2,1.4,0,2.6.9,3.6.8,1,1.9,1.7,3.3,1.8,1.5.2,2.7,0,3.8-.7,1.1-.6,2-1.6,2.8-2.8.8-1.2,1.4-2.6,2-4.1.4,0,.6,0,.8.1.1,0,.2,0,.3,0,.5,0,.9,0,1.2-.2.3-.2.5-.5.5-.9.3-1-.3-1.6-1.8-1.8.3-.8.5-1.8.7-2.9.2-1.1.4-2.3.6-3.5ZM689.7,330.2c-.5.8-1.1,1.4-1.7,1.9-.6.5-1.3.7-2.1.6-.5,0-1-.3-1.3-.7-.4-.4-.5-.8-.4-1.3,0-.7.5-1.2,1.3-1.6.7-.4,1.6-.6,2.7-.8,1-.2,2-.3,2.9-.4-.3.8-.7,1.5-1.2,2.3ZM693.8,309.8c0,.9,0,1.9,0,3,0,1.1,0,2.1-.1,3.1,0,1-.1,1.7-.2,2.2-1.5,1.5-3.4,2.6-5.6,3.3-2.2.7-4.3.9-6.4.6-1.2-.2-2.2-.5-3.2-.9-1.9-.9-3.4-2.2-4.2-4-.9-1.8-1.2-3.7-.9-5.8.3-2,.9-3.8,2-5.2,1-1.5,2.4-2.6,4.1-3.3,1.7-.7,3.6-1,5.7-.8,1.2.2,2.4.5,3.6,1,1.2.5,2.3,1.2,3.2,2,1,.8,1.6,1.7,2,2.8,0,.4,0,1.1,0,2ZM495.9,399.4c1.1.9,1.7,2.3,1.7,4,0,1.6-.5,3-1.7,4.2-1.1,1.2-2.5,1.8-4.1,1.8h-.1s-.1,0-.1,0c-8.8-1.5-15.4-4-19.8-7.2-4.4-3.3-7.1-7.5-8-12.3-.9-4.7-.8-9.9.3-15.5h0c0,0,0-.2,0-.2.5-1.3,1.3-2.4,2.5-3.3.9-.7,2-1,3.1-1s.8,0,1.2.1c2.5.5,3.9,1.7,4.4,3.5.4,1.6.3,3.1-.2,4.6-.5,6,.5,10.5,3,13.3,2.5,2.9,7,4.9,13.4,6.2,1.8.4,3.3,1,4.3,1.8ZM514.5,389.7c-1.6,3.2-3.6,6.9-6.2,10.9-.8,1.2-1.8,1.9-3.2,2.1-.7.1-1.4.2-1.9.2s-.7,0-1,0c-1.4-.3-2.7-1.1-3.6-2.5-1-1.4-1.3-2.9-1-4.5.1-.7.5-1.4,1-2.1,4.1-5.4,6.5-9.9,7.1-13.3.8-3.8-.3-6.8-3.2-9-3.1-2.3-7.7-4.3-13.9-5.9-6.3-1.7-13.8-3.5-22.3-5.5-2.5-.6-5-1.2-7.4-1.7-2.4-.5-4.8-1-7-1.5-6.2-1.2-12.4-2.3-18.3-3.2-5.9-.9-12.2-1.7-18.7-2.6-6.6-.8-14.1-1.9-22.5-3-.9-.2-1.8-.5-2.5-1-1,5.3-1.7,9.9-2.1,13.5-.4,3.9-.5,7.4-.4,10.3,0,.3,0,.9-.1,1.6-.3,1.3-1.1,2.5-2.5,3.4-1,.7-2.1,1-3.4,1s-1.1,0-1.7-.2c-1.8-.3-3.9-1.6-4.1-5.7h0c0,0,0-.1,0-.1.3-4.1.6-7.8.9-10.8.3-3,.6-5.7,1-8,.4-2.3.7-4.7,1.1-6.9.4-2.2.9-4.8,1.5-7.8h0c0,0,0-.1,0-.1.6-1.9,1.7-3.2,3.2-3.8.9-.4,1.9-.6,2.8-.6s.8,0,1.2.1c1.3.3,2.4.9,3.2,2,.4.5.7.9.9,1.4.2,0,.4,0,.6,0h.2c.6,0,1.1,0,1.6,0h.2c4.4.6,9.1,1.2,14.1,1.8,4.9.6,9.9,1.3,14.8,2.1,4.8.8,9.2,1.4,12.8,1.9,3.2.5,5.7.9,7.5,1.2l2.7-13.4c.4-2,1.3-3.4,2.8-4.1,1-.5,2-.7,3-.7s.8,0,1.2.1c1.7.3,3,1.1,4,2.3.9,1.3,1.2,2.8.9,4.7l-2.6,13.2c.8.1,1.7.3,2.9.5l10.8,2.2c1.6.3,2.8.6,3.5.9,10.8,2.5,19.8,5,26.9,7.5,7.2,2.6,12.4,5.7,15.6,9.4,3.3,3.8,4.3,8.7,3.1,14.6-.6,2.8-1.6,5.9-3.2,9.2ZM386,387.9c-.8-1.4-1-2.8-.7-4.2.2-1.2.7-2,1.3-2.6,1.6-1.9,3.9-4.3,6.8-6.9,2.9-2.7,6.1-5.4,9.5-8.1,3.4-2.7,6.5-5,9.4-6.9.8-.5,1.6-.8,2.5-.8s.7,0,1.1.1c1.8.4,3.3,1.3,4.3,2.8.9,1.3,1.1,2.7.9,4.1-.4,1.8-1.3,3.1-3,3.9-3.2,2.1-6.4,4.3-9.4,6.7-3,2.4-5.8,4.8-8.1,7-2.3,2.2-3.9,4.1-4.9,5.6-1.1,1.4-2.5,2.1-4.3,2.1s-1,0-1.5-.2c-1.8-.4-3.1-1.2-3.8-2.7ZM487,463.8c.8,1.2,1,2.4.8,3.8-.2,1.2-.8,2.2-1.7,3.1-.9.9-1.8,1.5-2.8,1.9-2.6,1-5.2,1.8-7.8,2.1-1.1.2-2.3.3-3.4.3s-2.9-.1-4.2-.4c-3.3-.7-6.2-2.1-8.6-4.2-2.4-2.1-4.2-4.8-5.3-7.9-1.1-3.1-1.3-6.4-.6-9.8.5-2.6,1.4-5.3,2.6-8,1.2-2.7,2.3-5.2,3.4-7.4,1-2.2,1.7-3.9,1.9-5.1.5-2.7-.5-4.6-3.3-5.9-3.1-1.5-7.9-2.8-14.2-4.1-2.8-.6-6-1.2-9.5-1.8-3.2-.6-6.7-1.3-10.7-2-2.7,3.8-6.1,9-10.1,15.6-4.2,6.9-8.4,14.6-12.7,22.9-1.2,2.8-3.3,3.4-4.9,3.4s-1,0-1.5-.2c-2.9-.6-4-2.3-4.5-3.6-.6-1.8-.5-3.5.1-4.9.5-1.3,1.4-3.3,2.8-5.9,1.4-2.5,3-5.4,4.8-8.5,1.9-3.1,3.7-6.2,5.6-9.2,1.9-3,3.6-5.7,5.1-8.1.9-1.5,1.7-2.7,2.4-3.7-1.9-.2-4-.4-6.1-.7-2.8-.3-5.5-.6-8.1-.9-2.6-.3-4.7-.6-6.4-.8-2.5-.3-2.8-.4-2.9-.4-1.9-.4-3.2-1.3-3.9-2.9-.7-1.4-.8-2.9-.5-4.4.3-1.7,1.2-2.9,2.5-3.6,1.1-.6,2.2-.9,3.2-.9s.3,0,.4,0c3.2.3,6.8.7,10.6,1.2,3.8.5,7.5.9,11.1,1.4,3.2.4,5.8.8,7.7,1.1l10.8-15.1c.6-1.1,1.5-1.9,2.6-2.3.7-.2,1.4-.4,2.1-.4s.9,0,1.3.1c1.7.3,2.9,1.2,3.8,2.6.8,1.4,1.1,2.9.7,4.5-.1.7-.5,1.5-1,2.3-1,1.5-2.2,3-3.4,4.7-1.2,1.6-2.3,3.1-3.1,4.4-.3.5-.6.9-.8,1.2,2.2.4,4.3.7,6.4,1.1,2.5.5,5,.9,7.2,1.3,6.5,1.3,12.1,2.8,16.6,4.5,4.6,1.8,8,4.1,10.2,6.8,2.2,2.9,2.8,6.7,1.9,11.2-.8,4-2.3,7.9-4.3,11.6-2,3.5-3.3,7-4,10.3-.5,2.5-.1,4.4,1.1,6,1.2,1.6,2.9,2.6,5,3,.7.1,1.3.2,2,.2s1.4,0,2.1-.2c1.4-.3,2.5-.7,3.4-1.3h0s0,0,0,0c1.2-.6,2.4-.9,3.5-.9s.7,0,1.1.1c1.5.3,2.8,1.2,3.8,2.7ZM652.9,385.1c-3.8-3-8.2-5.6-13.4-7.7-5.1-2-10.6-3.7-16.4-4.8-.4,0-.8-.1-1.2-.1-.7,0-1.3.1-1.9.3-.1-.4-.3-.7-.5-1.1-.5-.8-1.4-1.4-3-2-.6-.2-1.2-.4-1.8-.4s-1.5.2-2.2.5c-1.4.6-2.5,1.9-3.1,3.9-2.8,11.4-5.4,22.5-7.8,33-2.4,10.3-4.6,20.6-6.5,30.6-1.8,8.8-3.4,17.7-4.9,26.6-1.5,8.8-2.9,18.1-4.2,27.7,0,1.5.3,2.9,1.1,4.1.8,1.3,2,2.1,3.6,2.4h0s0,0,0,0c.2,0,.4,0,.5,0,1.5,0,2.9-.4,4-1.3,1.3-1,1.9-2.3,2-3.8l2.9-20.1c.8.7,1.8,1.1,3,1.4,4.5.9,9.2,1.4,13.9,1.4h.7c5,0,9.8-.7,14.3-2,4.6-1.3,8.5-3.4,11.8-6.3,3.3-2.9,5.7-6.8,6.9-11.5.8-3.1,1-6.5.4-10-.6-3.5-1.7-6.8-3.4-9.8-1.2-2.1-2.8-3.9-4.6-5.4,1.6-.3,3.3-.9,5.1-1.7,3-1.4,5.9-3.7,8.6-7,2.7-3.2,4.6-7.5,5.6-12.8,1-5,.6-9.6-1.2-13.6-1.7-4-4.5-7.6-8.3-10.6ZM637.9,419.6c-2.6.6-5.4.9-8.2.9s-1.9,0-2.9-.1c-.3,0-.6,0-.9,0-1,0-2,.3-3,1-1.3.9-2.1,1.9-2.3,3.2-.8,4.2,1.2,6,3,6.8h0s.1,0,.1,0c1.8.4,3.7,1.3,5.7,2.7,2,1.5,3.9,3.3,5.6,5.5,1.7,2.1,3,4.4,3.9,6.7.9,2.2,1.1,4.4.7,6.3-.7,3.7-2.8,6.5-6.3,8.3-3.6,1.9-8,3-12.9,3.2-1,0-2,0-3,0-4,0-8.1-.4-12.1-1.2-.5,0-.9-.1-1.3-.1-.8,0-1.6.2-2.4.5.7-3.8,1.3-7.5,2-11,.8-4.3,1.7-8.7,2.6-13.2,1.8-9.2,3.8-18.6,5.9-27.9,2-8.7,4.2-18.2,6.5-28.2.7.5,1.6.8,2.5,1.1,10.6,2.1,18.6,5.3,23.8,9.4,5.1,4,7.1,8.5,6.1,13.6-.7,3.5-2.2,6.3-4.5,8.3-2.3,2-5.3,3.5-8.7,4.3ZM575.3,358c.3-1.6,0-3.1-.8-4.4-.8-1.3-2.1-2.2-3.8-2.5-.3,0-.6,0-.9,0-1,0-2,.3-3,.9-1.4.8-2.3,2.1-2.7,4l-3,14.9-24.3-4.8c-.4,0-.7-.1-1.1-.1-1,0-1.9.3-2.9.8-1.4.7-2.3,2.1-2.7,3.9-.3,1.5,0,3,.8,4.3.9,1.3,2.1,2.1,3.6,2.4l7,1.4c-.9,3.2-1.7,6.5-2.4,10-.8,3.8-1.3,7.8-1.6,11.6-.3,3.4-.3,6.8,0,10.1l-11.2-2.2c-.4,0-.8-.1-1.3-.1-1.1,0-2.1.3-3,.8-1.4.8-2.3,2-2.6,3.7-.4,1.8,0,3.3.9,4.5.9,1.2,2.2,1.9,3.8,2.2l63.6,12.6c.6.1,1.1.2,1.6.2,1.9,0,4.3-.8,5-4.6.7-3.6-.9-5.9-4.4-6.6l-11.5-2.3c1.5-4.1,2.9-7.9,4.1-11.3,1.3-3.8,2.3-7.7,3.1-11.6.5-2.5.9-5.2,1.2-7.9l7.3,1.5c.4,0,.9.1,1.3.1,1.1,0,2.2-.3,3.1-.9,1.3-.9,2.1-2.1,2.4-3.6.3-1.6,0-3.1-.8-4.4-.9-1.3-2.1-2.1-3.8-2.4l-24.2-4.8,3-14.9ZM552.3,384.2c.3-1.1.6-2.3.9-3.4l22.8,4.5c0,.7-.2,1.5-.3,2.3-.2,1.1-.4,2.3-.6,3.6-.9,4.4-2.1,9.2-3.6,14-1.4,4.5-2.8,8.1-4.2,10.9l-17.8-3.5c-.2-3.7-.1-7.6.2-11.4.3-4.1.9-8.4,1.8-12.7.3-1.4.6-2.8.9-4.2ZM555.3,428.7c-5.2-1-10-1.6-14.2-1.6s-4.1.1-5.9.4c-5.6.8-10.2,3.2-13.6,7.1-3.3,3.9-5.8,9.7-7.3,17.2-2.1,10.8-.6,19.2,4.5,25,5.1,5.7,13.3,9.7,24.5,12,4.8,1,9.2,1.4,13.2,1.4,5.6,0,10.5-1,14.4-2.9,6.9-3.3,11.4-10.5,13.6-21.5,2.2-11.1.9-19.5-3.9-25.1-4.7-5.5-13.3-9.6-25.4-12ZM525.7,466.2c-1.1-2.9-1.1-7-.1-12.1,1.1-5.6,2.8-9.6,4.9-12,2.1-2.3,4.9-3.5,8.5-3.7.6,0,1.1,0,1.7,0,3.4,0,7.6.5,12.3,1.4,6.1,1.2,10.8,2.7,14.2,4.3,3.2,1.6,5.2,3.8,6.2,6.8,1,3,.9,7.3-.1,12.7-1,5.1-2.6,8.8-4.7,11.1-2.1,2.3-4.9,3.6-8.5,3.9-.9,0-1.8.1-2.7.1-3.3,0-7.2-.5-11.7-1.4-5.6-1.1-10.1-2.6-13.5-4.3-3.2-1.7-5.4-4-6.5-6.9ZM204.4,332.4c1.9-5,3.7-9.4,5.3-13.1h31.4c2.1,0,3.9-.7,5.3-2.2,1.4-1.5,2.1-3.2,2.1-5.2s-.6-3.7-1.7-5c-1.2-1.4-3.1-2.2-5.7-2.2h-61.6c-2.1,0-3.9.7-5.4,2-1.5,1.3-2.2,3.1-2.2,5.2s.7,3.9,2.2,5.3c1.5,1.4,3.3,2.1,5.4,2.1h14.4c-3.2,9-6.3,17.6-9,25.5-2.9,8.3-5.4,16.8-7.5,25.4-2.1,8.6-3.9,18.4-5.4,29.3-.6,2.3,0,4.4,1.8,6.1,1.7,1.6,3.7,2.5,5.8,2.5s2.2-.3,3.2-.8c.4-.2.7-.4,1-.6.5,9.2,3.5,16.6,9.1,22.2,6.1,6,13.7,9.1,22.6,9.1s14-2,18.8-5.8c4.8-3.8,8.4-9.1,10.6-15.6,2.2-6.4,3.4-13.5,3.4-21s-1-15.4-2.9-21.7c-2-6.4-5.4-11.6-10.1-15.4-4.8-3.8-11.4-5.7-19.7-5.7s-5.2.3-8.1.8c-2.9.5-5.6,1.3-8.1,2.1-1.3.5-2.4.9-3.4,1.4.8-2.6,1.9-5.8,3.1-9.4,1.6-4.9,3.5-10.1,5.5-15.4ZM233.5,396.6c0,4.9-.6,9.6-1.7,13.7-1.1,4.1-3,7.3-5.6,9.7-2.6,2.3-6.2,3.5-10.7,3.5s-7.9-1.3-10.5-3.8c-2.7-2.6-4.6-6.1-5.8-10.5-1.2-4.4-1.9-9.4-1.9-14.7s.4-10,1.3-14.1c.8-4,2.5-7.1,5.1-9.5,2.5-2.3,6.5-3.4,11.8-3.4s9.2,1.2,11.7,3.5c2.5,2.4,4.2,5.7,5,10,.9,4.4,1.3,9.6,1.3,15.5ZM350.4,357.8h0c-1.9.1-4.6.3-8.5.5-3.3.2-6,.3-8.2.3v-55.2h11.2c2,0,3.7-.7,5-2.1,1.3-1.4,2-3.1,2-5.1s-.7-3.7-2-5.2c-1.3-1.5-3-2.2-5-2.2h-77c-1.7,0-3.3.6-4.9,1.8-1.7,1.3-2.5,3.1-2.5,5.6s.7,3.7,2.2,5.1c1.5,1.4,3.2,2.1,5.2,2.1h13.2c-.2,1.2-.5,3.3-.9,6.3-.6,4.3-1.3,9.4-2.1,15.4-.8,6-1.6,12.1-2.4,18.3-.8,5.9-1.4,10.9-1.9,15.2-3.1,0-6.2-.1-9.2-.3-3.3-.2-5.2-.3-5.8-.3-1.8,0-3.5.5-5.2,1.4-1.9,1.1-2.8,3-2.8,5.8,0,4.5,2.5,7.1,7.2,7.6l14.2.6c-.1,1.9-.3,4.6-.6,8.1-.3,4.3-.7,9.2-1,14.6-.3,5.5-.7,11.3-1.1,17-.4,5.8-.7,11.4-1,16.6-.3,5.3-.5,9.7-.7,13.4-.2,3.7-.3,6.1-.3,7.4,0,1.9.5,3.7,1.6,5.2,1.1,1.6,2.9,2.4,5.4,2.4s4.1-.8,5.4-2.2c1.3-1.5,2-3.1,2-5s.1-5.3.3-9.6c.2-4.3.5-9.3.8-14.8.3-5.4.7-11,1.1-17.1.4-5.8.8-11.3,1.2-16.5.4-5.3.8-9.7,1.1-13.3.3-2.8.4-4.8.6-6,.9,0,2.6,0,4.9,0,3.4,0,7.1.1,11.4.1s8,0,11.4-.1c2.1,0,3.7,0,4.6,0v77c0,2.1.7,3.9,2.1,5.3s3.2,2.1,5.3,2.1,3.3-.7,4.8-1.9c1.6-1.3,2.4-3.2,2.4-5.5v-77.2c1.7,0,4.2-.1,7.4-.3,3.8-.2,7.2-.4,10.3-.5h0s0,0,0,0c1.6-.3,3.1-.9,4.5-1.7,1.6-1,2.5-2.6,2.5-4.7s-.9-4.6-2.5-6.1c-1.7-1.5-3.6-2.3-5.7-2.3ZM319.3,303.4v55.6h-24.8c-2,0-3.4,0-4.3,0-.6,0-1.1,0-1.6,0,.2-1.7.4-4.1.8-7.2l1.6-13c.6-4.9,1.2-9.8,1.9-14.6.7-4.9,1.3-9.2,1.8-13.1.5-3.3.8-5.8,1.1-7.5h23.5ZM629,126.8c-.9-1.4-1.2-3.1-.7-4.9.3-1.3,1.1-2.4,2.3-3.1.9-.6,1.9-.9,2.9-.9s.7,0,1,0c3.2.7,6.1,1.5,8.8,2.3,2.6.8,5.4,1.9,8.1,3.1,2.7,1.2,5.9,2.8,9.5,4.8,3.6,2.1,3.8,4.5,3.4,6.1-.4,1.7-1.4,3-2.9,4-.8.5-1.7.8-2.5.8s-1.5-.2-2.3-.6c-.3-.1-1.2-.5-4.6-2.1-2.6-1.2-5.8-2.6-9.3-4-3.5-1.4-6.8-2.5-9.9-3.3-1.6,0-2.9-.9-3.9-2.3ZM619.9,161.7c-.7-1.2-.9-2.8-.4-4.6.4-1.5,1.2-2.6,2.2-3.2.9-.5,1.9-.8,2.9-.8h.2c1.4.1,2.9.3,4.4.6,1.6.2,3.1.6,4.7,1,3.1.8,6.3,1.8,9.5,3.1,3.2,1.2,6,2.4,8.4,3.6,2.6,1.3,3.6,3.5,2.9,6.4-.5,1.8-1.4,3.1-2.6,3.7-.8.4-1.6.6-2.5.6s-1,0-1.5-.2c-.7-.2-1.2-.4-1.6-.6-4.6-2.3-9.9-4.2-15.5-5.7-2.6-.7-5-1.1-7.2-1.4h0s0,0,0,0c-1.9-.5-3.2-1.3-3.9-2.5ZM750.6,145.9c-.8-1.4-1.9-2.3-3.5-2.7-22.1-5.7-45.8-9.1-70.5-10h0s0,0,0,0c-3.6.3-4.9,2.4-5.3,4.1-.4,1.5-.3,2.9.2,4.2.5,1.5,1.7,2.4,3.5,2.9.2,0,.7.1,2,.2,1.3,0,2.7-.1,4.1-.1s3.9,0,6,.2c3.6.3,7.3.6,10.9,1.1,3,.3,5.5.7,7.8,1-.1.3-.2.5-.3.9l-6.5,24.9-34.5-8.9c-.5-.1-1-.2-1.4-.2-1,0-2,.3-2.9.9-1.3.8-2.2,2-2.6,3.4-.4,1.5-.1,3,.8,4.4.9,1.3,2,2.2,3.3,2.5l34.5,8.9-3.7,14.1c-.2.8-.2,1.5-.1,2.2-4.4-1-8.5-1.5-12.4-1.5s-3.1,0-4.6.3c-5.7.7-10.7,2.8-14.7,6.5-4,3.6-7,9.2-8.9,16.4-1.9,7.3-1.9,13.7,0,18.9,2,5.2,5.6,9.6,10.8,12.9,5.1,3.3,11.6,6,19.2,8,6.6,1.7,12.6,2.6,17.9,2.6s2.1,0,3.1-.1c6.2-.4,11.4-2.5,15.6-6.1,4.1-3.6,7.2-9.2,9.1-16.5,2.8-10.9,2-19.5-2.5-25.4-4.2-5.6-11.8-10-22.7-13.3.4-.6.8-1.2,1-2l3.7-14.1,34.3,8.9c.6.1,1.1.2,1.6.2,1,0,1.9-.3,2.8-.8,1.3-.8,2.1-2,2.5-3.5.3-1.3.2-2.6-.3-4-.6-1.5-1.8-2.4-3.7-2.9l-34.3-8.9,6.5-24.9c.2-.7.2-1.4.1-2.2,2.1.3,4.7.8,7.5,1.3,3.5.7,7.1,1.5,10.8,2.3,3.7.9,6.8,1.6,9.5,2.3.4.1.8.2,1.2.2.8,0,1.7-.2,2.7-.6,1.5-.6,2.5-1.8,2.9-3.5.4-1.5.2-3-.6-4.3ZM710.6,249.3c-2.7,2.2-6.2,3.3-10.4,3.4h-.3c-4.3,0-9.4-.8-15.3-2.3-5.7-1.5-10.5-3.3-14.3-5.5-3.7-2.1-6.2-4.8-7.6-8-1.4-3.3-1.4-7.5,0-12.7,1.3-5.2,3.3-8.9,5.9-11.1,2.5-2.2,5.9-3.3,10-3.3h.3c4.2,0,9.5.8,15.6,2.4,6.3,1.6,11.4,3.4,15.2,5.3,3.6,1.8,6.1,4.2,7.3,7.4,1.2,3.2,1.1,7.7-.4,13.5-1.3,5.2-3.4,8.9-6.1,11.1ZM599.5,236.3c-.1-1,0-1.9.2-2.7.6-2.3,2.2-3.8,4.6-4.2,2.1-.3,4.5-.8,7.2-1.5,2.8-.7,5.7-1.5,8.6-2.4,2.9-.9,5.6-1.7,8.1-2.6,2.4-.8,4.1-1.6,5.1-2.2h0s0,0,0,0c1.1-.4,2-.7,3-.7s.9,0,1.3.2c1.3.3,2.5,1.4,3.5,3.1.6,1.2.7,2.5.4,3.8-.5,1.7-1.4,2.9-2.8,3.5-1,.6-2.6,1.3-4.9,2.2-2.3.9-4.9,1.8-7.7,2.8-2.9,1-5.8,1.8-8.7,2.6-2.9.8-5.5,1.4-7.7,1.9-2.1.5-3.7.7-4.7.7h-.3s0,0,0,0c-1.2-.2-2.3-.6-3.3-1.2-1.1-.7-1.8-1.8-2-3.1ZM422.2,149.9c-1.7-1.6-2.5-3.7-2.3-6.1.5-5,1.5-10.8,2.9-17.4,1.4-6.6,3.1-13.5,5.1-20.7,2-7.1,4.2-14.1,6.5-20.6,2.3-6.5,4.6-12.3,6.7-17.1.6-1.6,1.6-2.9,2.9-3.6,1.3-.7,2.5-1,3.8-1s2.3.2,3.2.7c1.7.6,2.9,1.6,3.7,2.9.8,1.3,1.1,2.6,1.1,3.8s-.3,2.7-.9,3.5c-.6,1.3-1.5,3.3-2.5,5.9-1,2.7-2.1,5.5-3.1,8.5-.8,2.4-1.6,4.6-2.3,6.7h56.4v-22.4c0-2.1.7-3.9,2-5.3,1.3-1.4,3.1-2.1,5.4-2.1,5,0,7.6,2.6,7.6,7.4v22.4h61.2c2.7,0,4.7.9,5.9,2.6,1.1,1.6,1.7,3.4,1.7,5.2s-.7,3.7-1.9,5.2c-1.3,1.6-3.2,2.4-5.7,2.4h-61.2v44.8h39.6c2.7,0,4.7.8,6,2.4,1.2,1.5,1.8,3.3,1.8,5.2s-.7,4.1-2.2,5.5c-1.5,1.4-3.3,2.1-5.6,2.1h-39.6v53.2c11.4,0,23.2-.2,35.2-.5,12.2-.3,23.3-1,32.9-1.9h0c2.5,0,4.4.7,6,2.2,1.5,1.5,2.3,3.5,2.3,6s-.7,3.5-2,4.8c-1.3,1.3-3,2.1-5.1,2.4-13.4.8-26,1.4-37.6,1.8-11.6.4-23.1.6-34.1.6s-27.6-.3-41.4-1c-13.8-.7-29-1.7-45.2-3-2.5-.3-4.2-1.2-5.2-2.7-1-1.4-1.5-2.9-1.5-4.5,0-2.2.8-4.2,2.2-6,1.2-1.4,2.8-2.2,4.7-2.2s1,0,1.5.1c6.9.8,14.9,1.5,23.6,2,8.7.5,17.5.9,26.2,1.2,8.3.3,15.9.4,22.7.4v-53h-39.6c-2.6,0-4.6-.9-5.8-2.6-1.2-1.6-1.8-3.3-1.8-5s.7-3.9,2-5.4c1.3-1.5,3.2-2.2,5.6-2.2h39.6v-44.8h-59.2c-.5,0-.9,0-1.4-.1-.1,0-.2,0-.3,0-1.6,5.6-3.2,11.5-4.6,17.6-1.5,6.5-2.5,12.1-2.9,16.9-.6,5.9-4,7.1-6.8,7.1s-4.4-.8-6.1-2.4ZM352.2,223.8c-1.6-1.3-3-2.4-4.3-3.3l4.4-3.3c1.3-.9,2-2.1,2.3-3.7.3-1.6-.1-3-1.2-4.2-1.1-1.2-2.3-2-3.5-2.2-.3,0-.6,0-.8,0-1.2,0-2.3.4-3.4,1.2l-8,5.8c-3.8-2-7.1-3.6-10.1-4.7l.2-1.2c3,.3,5.8.4,8.3.4s3,0,4.3-.2c3.9-.3,7-1.6,9.3-3.9,2.3-2.2,3.9-5.8,4.7-10.6.9-5.3.3-9.5-1.8-12.5-2-3-5.2-5.3-9.5-6.9-4.1-1.5-9.1-2.7-14.9-3.7-4.9-.8-9.3-1.2-13.2-1.2s-1.6,0-2.3,0c-4.6.2-8.3,1.4-11.2,3.6-2.9,2.2-4.7,6-5.6,11-.8,5.1-.2,9.2,1.8,12.2,1.6,2.4,4.2,4.5,7.5,6.1l-4.1,1.5c-2.6.9-5.3,2-8.1,3.2-2.8,1.2-5.4,2.4-7.8,3.5-2.4,1.2-4.3,2.3-5.6,3.2-1.3.9-2,2.1-2.2,3.5-.3,1.7.2,3.2,1.3,4.5.9,1.2,2,2,3.4,2.2.3,0,.6,0,.8,0,1.2,0,2.3-.4,3.5-1.2,1.2-.9,3.2-1.9,5.8-3.2,2.7-1.3,5.7-2.6,9-3.9,3.3-1.3,6.4-2.5,9.3-3.5,2.1-.7,3.8-1.2,5.2-1.5l-2.8,17.2c-.3,1.6,0,3,1,4.2.9,1.2,2.1,1.9,3.7,2.2.3,0,.6,0,1,0,1,0,1.9-.2,2.9-.7,1.3-.7,2.2-2,2.5-3.9l1.6-9.6c1,.4,2.3,1.1,3.9,2,2.3,1.3,4.7,2.7,7.3,4.3,2.6,1.6,4.9,3.1,7,4.7,2.1,1.5,3.4,2.7,4.2,3.6,1.1,1.1,2.3,1.8,3.5,2,.2,0,.5,0,.7,0,1.2,0,2.5-.5,3.6-1.5,1.1-1,1.8-2.1,2-3.3.2-1.4-.2-3-1.4-4.6-.8-1-2.3-2.3-4.4-4.1ZM307.1,186.3c.4-2.4,1.3-4,2.8-4.7,1.3-.6,3-1,4.9-1s1,0,1.5,0c2.8.2,5.9.6,9.2,1.1,6.5,1.1,11.4,2.3,14.6,3.5,2.8,1.1,3.9,3.3,3.3,6.9-.4,2.1-1.3,3.6-2.9,4.3-1.5.7-3.4,1.1-5.7,1.1s-.7,0-1.1,0c-2.9-.1-6.2-.5-9.7-1.1-6.1-1-10.8-2.2-13.9-3.5-2.8-1.2-3.8-3.3-3.2-6.8ZM376.1,255.1c2.7-7.9,5.4-16.1,7.9-24.3,2.6-8.3,4.9-16.6,7-24.7,2.1-8.1,3.7-15.8,4.9-22.9,1.5-9.1,2.2-16.9,2.3-23.1,0-6.3-1-11.7-2.9-16-2-4.3-5.1-7.9-9.4-10.7-4.2-2.7-9.8-5.1-16.7-6.9-6.8-1.8-15.2-3.6-24.9-5.2-4.5-.7-9.6-1.5-15.1-2.2-5.5-.7-11.1-1.4-16.6-2-5.6-.6-11-1.1-16-1.5-4.7-.4-8.9-.6-12.4-.7-.4-.8-.9-1.4-1.6-2-.9-.7-2.2-1.1-3.8-1.1-1.8,0-4.2.9-5.2,4.5-2,8.3-3.9,17.1-5.6,26-1.8,9-3.4,18.2-4.9,27.2-1.8,11.2-3.4,22.5-4.7,33.6-1.3,11-2.2,21.7-2.9,31.8-.2,1.2,0,2.4.5,3.5.6,1.2,1.8,2.1,3.6,2.6h0s0,0,0,0c.5,0,1,.1,1.4.1,2,0,3.6-.9,4.6-2.5l41.9,6.9c11.4,1.9,20.9,3.4,28.4,4.6,7.4,1.2,13.1,2.1,17.2,2.8l11.9,2c.2.8.6,1.6,1.1,2.2.7,1,1.9,1.6,3.5,1.9.3,0,.6,0,.9,0,.9,0,1.7-.2,2.5-.6,1.1-.6,2.1-1.6,2.8-3.1h0ZM384.2,147.4c1.7,2.9,2.7,6.9,2.8,11.7.1,5-.4,11.3-1.7,18.9-1.1,6.6-2.6,14-4.5,21.9-1.9,7.9-4,15.8-6.3,23.7-2.2,7.4-4.3,14.3-6.5,20.5-.5-.2-1.1-.3-1.7-.4l-99.1-16.3c.8-9.1,1.9-18.6,3.1-28.2,1.3-9.8,2.7-19.8,4.3-29.7,1.3-7.7,2.6-15.3,4-22.6,1.4-7.2,2.8-14.3,4.3-21.1,6,.4,11.3.8,16.1,1.1,5,.4,9.7.8,13.9,1.2,4.3.5,8.6,1,12.7,1.5,4.2.5,8.7,1.2,13.5,2,8.7,1.4,16.2,2.8,22.3,4,6,1.2,10.9,2.8,14.6,4.6,3.6,1.8,6.3,4.2,8,7.1ZM367.9,166.9c.7,1.3.9,2.6.7,3.9-.2,1.3-.9,2.5-2.1,3.4-1,.8-2.1,1.2-3.3,1.2s-.7,0-1,0l-67.5-11.1c-1.9-.3-3.2-1.2-3.9-2.6-.6-1.3-.8-2.5-.6-3.7.2-1.5.9-2.7,2-3.7.9-.7,1.9-1.1,3.2-1.1s.8,0,1.2.1l28.5,4.7,1.2-7.1-23.4-3.8c-1.8-.3-3.1-1.2-3.8-2.6-.7-1.3-.9-2.6-.7-3.8.3-1.5,1-2.8,2.2-3.6.9-.7,2-1,3.1-1s.7,0,1,0l23.4,3.8.3-1.5c.3-1.9,1.2-3.2,2.7-3.9,1-.5,2-.7,2.9-.7s.6,0,.9,0c1.3.2,2.5.9,3.4,2,1,1.2,1.4,2.6,1.1,4.3l-.3,1.5,23.1,3.8c2,.3,3.4,1.2,4.1,2.5.6,1.2.8,2.5.6,3.8-.3,1.5-1,2.8-2.2,3.7-.9.7-2,1.1-3.2,1.1s-.7,0-1.1,0l-23.1-3.8-1.2,7.1,28,4.6c1.9.3,3.2,1.2,4,2.6ZM178.7,239.1c-4.4,3.9-9.4,6.7-14.7,8.3-.5.2-1.2.2-2.1.2-1.7,0-3.3-.7-4.8-2.1-1.5-1.4-2.2-3.2-2.2-5.3,0-3.5,1.7-5.7,4.9-6.4,3.4-1.2,6.7-3.1,9.6-5.7,3-2.7,5.5-5.7,7.6-9,1.8-2.9,3-5.7,3.6-8.4h-67.8c-2.5,0-4.3-.8-5.5-2.4-1.1-1.5-1.7-3-1.7-4.6s.7-3.5,2-5c1.3-1.5,3.1-2.2,5.2-2.2h67.3c-2.4-8.5-8.4-14.7-17.9-18.7-3.6-1.5-5.4-3.7-5.4-6.5s.8-4.4,2.3-5.4c1.3-.8,2.8-1.3,4.6-1.6,4.3-.7,8.6-1.9,12.7-3.7,4.1-1.8,7.4-4.1,10-6.8,2.5-2.6,3.7-5.4,3.7-8.5s-1.1-4.8-3.4-6.4c-2.4-1.6-5.7-2.9-9.7-3.6-4.1-.8-8.7-1.2-13.5-1.2s-9.4.3-14.3.9c-4.9.6-9.5,1.4-13.7,2.3-.6.1-1.2.2-1.7.2-1.6,0-3-.5-4.1-1.5-1.4-1.3-2.3-2.6-2.6-4h0c0,0,0-.1,0-.1-.5-4.5,1.5-7.4,5.6-8.3,5-1.2,10.3-2.1,15.6-2.8,5.3-.7,10.5-1,15.4-1,7.2,0,14,.8,19.9,2.3,6.1,1.6,11,4.1,14.6,7.5,3.7,3.5,5.6,8.2,5.6,13.9s-1,8.1-3.1,12.2c-2,4-4.8,7.7-8.3,11-3.1,2.9-6.6,5.2-10.5,7,6.9,6.2,11.3,13.9,13,22.9h31c2,0,3.7.7,5.1,2,1.4,1.3,2.1,3.1,2.1,5.2s-.7,3.7-2,5c-1.3,1.3-3.1,2-5.2,2h-30.7c-.8,5-2.6,10-5.4,14.8-3,5.1-6.7,9.6-11.1,13.4ZM256.5,137.2c-1.9,5.6-4.4,11.1-7.5,16.5-1.2,2.3-3.1,3.5-5.5,3.5s-2.8-.4-4.2-1.1c-1.3-.8-2.2-1.7-2.7-2.8-.5-1.1-.8-2.2-.8-3.2s.4-2.7,1.2-3.8c2.3-3.5,4.3-7.4,6-11.5,1.6-4.1,2.4-7.8,2.4-11.1s-1.5-7.7-4.7-10.4c-3.2-2.8-7.7-5.1-13.3-6.7-5.7-1.6-12.4-2.8-19.7-3.6-7.4-.7-15.3-1.1-23.5-1.1-13.2,0-28,.8-44,2.3-15.7,1.5-31.2,3.4-46.3,5.6l2.7,34.1c0,2.6-.7,4.5-2,5.7-1.3,1.2-2.9,1.8-4.6,1.8s-3.6-.5-4.9-1.5c-1.3-1-2.2-2.6-2.5-4.8l-3.8-48.5c-.6-3.3.9-5,2.3-5.8,1.8-1.1,3.4-1.7,4.9-1.7s3.5.6,4.8,1.9c1.1,1.1,1.8,2.6,2,4.5,4-.7,7.4-1.3,10.1-1.8,2.9-.5,5.9-1,8.9-1.5,2.7-.4,6-.9,9.8-1.3l-8.8-19.6c-.5-.9-.7-1.9-.7-3,0-1.7.7-3.3,2.1-4.7,1.4-1.4,3.1-2.1,5.1-2.1,2.9,0,5.1,1.4,6.3,4,2.4,5.4,4.3,9.5,5.6,12.4,1.3,2.9,2.3,5.1,3,6.6.7,1.5,1.1,2.7,1.4,3.5.1.5.2,1,.3,1.5,5.1-.5,9.1-.9,11.9-1.1,3-.3,5.3-.4,6.8-.5.9,0,1.8,0,2.6-.2l-8.4-18.1c-.5-1.2-.7-2.3-.7-3.2,0-2.2.7-3.9,2.1-5.1,1.4-1.2,3-1.9,4.9-1.9s2.5.3,3.7,1c1.3.7,2.2,1.8,2.8,3.2,3.3,6.9,5.7,12,7.2,15.1,1.5,3.2,2.4,5.3,2.8,6.3.3.7.5,1.4.6,2.1,6,0,10.9,0,14.6.1,3.4,0,6.5.1,9.4.3.3-2.3,1.6-5,3.9-8.2,2.5-3.5,6-8.3,10.6-14.5,1.7-2.1,3.6-3.2,5.8-3.2s3.7.7,5.1,2.1c1.4,1.4,2.1,3,2.1,4.9s-.5,2.8-1.4,4.2l-10.9,16c8.6,1.1,16.5,2.6,23.4,4.5,7.5,2.1,13.6,5.4,17.9,9.8,4.4,4.4,6.7,10.7,6.7,18.5s-1,10.4-2.9,16Z"/>
    </clipPath>
  </defs>
  <g>
    <path class="cls-3" d="M560.9,562.8c-.7,0-1.4,0-2.1,0-3-.2-5.9-.8-8.6-1.8-1.9.5-3.9.8-5.9.8s-1.1,0-1.6,0c-1.4,0-2.8-.3-4.1-.7-.8,0-1.7.1-2.5.1s-1.1,0-1.6,0c-1.2,0-2.4-.3-3.5-.5-.4,0-.8,0-1.2,0l-10.5-.7c-2.7-.2-5.2-.8-7.6-1.7-2.1.6-4.2.9-6.4.9s-1.1,0-1.6,0c-1.8-.1-3.6-.5-5.3-1-1.4.2-2.9.3-4.4.3s-1.4,0-2.2,0c-3.1-.2-6-.9-8.8-1.9-2.1.5-4.4.7-6.7.7s-1.4,0-2.2,0c-2.2-.2-4.4-.5-6.5-1.1-1.2.2-2.4.3-3.6.3s-1.1,0-1.6,0c-1.9-.1-3.7-.5-5.4-1-1.2.2-2.5.3-3.8.3h0c-.5,0-1.1,0-1.6,0-1.6-.1-3.1-.4-4.6-.8-1.1.1-2.3.2-3.5.2s-1.6,0-2.5,0c-3-.2-5.8-.8-8.5-1.8-2.2.5-4.5.7-6.8.7s-1.6,0-2.4,0c-3.8-.3-7.4-1.1-10.8-2.5-2.3.7-4.7,1.2-7.2,1.2s-1.1,0-1.6,0c-1.8-.1-3.6-.5-5.3-1-1.3.2-2.5.3-3.8.3s-1.1,0-1.6,0c-1.8-.1-3.6-.5-5.3-1-1.4.2-2.9.3-4.3.3s-1.4,0-2.2,0c-8.3-.6-15.8-4.3-20.9-10.6-4.1-4.9-6.4-11.1-6.7-17.6-.3,0-.6,0-.9,0-.7,0-1.4,0-2.1,0-3.7-.3-7.1-1.1-10.3-2.5-2.3.8-4.8,1.2-7.3,1.2s-1.1,0-1.6,0c-1.7-.1-3.3-.4-4.9-.9-1.3.1-2.6.2-4,.2s-1.4,0-2.1,0c-2.4-.2-4.6-.6-6.8-1.2-1.6.3-3.2.4-4.8.4s-1.3,0-1.9,0c-1.8-.1-3.6-.4-5.3-.9-1,.1-2,.2-3.1.2s-1.1,0-1.6,0c-1.8-.1-3.6-.5-5.3-1-1.3.2-2.5.3-3.9.3s-1.1,0-1.6,0c-1.2,0-2.3-.2-3.4-.5-.4,0-.9,0-1.4,0s-1.1,0-1.7,0c-2.4-.2-4.8-.7-7-1.6-1.8.5-3.7.7-5.7.7s-1.1,0-1.6,0c-.9,0-1.8-.2-2.7-.3-.4,0-.8,0-1.1,0s-1.1,0-1.6,0c-.9,0-1.8-.2-2.7-.3-.7,0-1.3,0-2,0s-1.4,0-2.1,0c-2-.1-3.9-.5-5.7-.9-.9.1-1.9.2-2.8.2s-1.1,0-1.6,0c-1.6-.1-3.2-.4-4.7-.8-1.1.1-2.3.2-3.5.2s-1.6,0-2.5,0c-2.8-.2-5.5-.8-8-1.7-2,.4-4.2.6-6.4.6s-1.4,0-2.1,0c-2.5-.2-4.9-.6-7.2-1.4-4.1,3.5-9.4,5.7-15.2,5.7s-1.1,0-1.6,0c-6-.4-11.3-3.1-15.2-7.1-14.7-2.6-25.4-14.3-24.5-27.6.1-2.1.6-4.1,1.2-6-.2-1.6-.2-3.2-.1-4.9,1-14.2,12.9-24.9,27.9-25.4-1.9-3-3.6-6.1-4.9-9.5-2.6-1.4-5.1-3.1-7.3-5.2-7.1-6.8-10.1-16.3-8.2-25.8,1.6-11.3,3.5-21.7,5.7-30.8,2.3-9.2,5-18.4,8.1-27.3v-.4c-1.7-1.1-3.5-2.4-5.1-4-5.8-5.5-9.1-13.1-9.1-21.3s3.4-16.1,9.6-21.6c5.5-4.9,12.6-7.6,20-7.6h61.6c.2,0,.3,0,.5,0,1.9-3.8,4.6-7.1,8-9.7,5.4-4.1,11.7-6.3,18.3-6.3h33.7l-31.5-5.2c-2.8,1-5.9,1.5-9,1.5s-3.3-.1-5-.4c-.9-.1-1.8-.4-2.7-.6-7.9-2.3-14-7.3-17.3-14.1-2.3-4.8-3.2-10-2.6-15.2,0-.3,0-.6,0-.9-2.5.6-5,1-7.7,1h-15c-.7,1.3-1.4,2.6-2.1,3.9-4.2,7.1-9.4,13.4-15.6,18.9-6.7,5.9-14.3,10.2-22.6,12.8-2.7.8-5.5,1.3-8.7,1.3-7.3,0-14.4-2.9-19.9-8.1-5.8-5.5-9.1-13.1-9.1-21.3s.3-5.1.9-7.4h-20.9c-9.3,0-17.8-4.1-23.1-11.2-4-5.3-6.1-11.5-6.1-17.8s2.7-14.2,7.5-19.6c5.5-6.2,13.2-9.6,21.7-9.6h22.2c-.1-1-.2-2.1-.2-3.2,0-4.3.8-8.4,2.4-12-1.2.1-2.3.2-3.5.2-6.2,0-12.1-2-16.9-5.6-1.6,4.7-4.2,8.8-7.9,12-5.3,4.7-12.1,7.3-19.1,7.3s-13.1-2.1-18.3-6.1c-5.9-4.5-9.7-11.3-10.9-19.1,0-.5-.1-.9-.2-1.4l-3.7-47.7c-1.4-11,3.3-21.2,12.5-27,5.3-3.3,10.9-5,16.6-5s2.7,0,4,.3c.2-7.2,3.2-14,8.5-19.3,5.5-5.5,12.9-8.5,20.7-8.5s11.8,1.8,16.5,5.1c5.4-4.7,12.2-7.3,19.3-7.3s10,1.3,14.5,3.8c5.3,3,9.4,7.5,12,13,1.4,2.9,2.7,5.5,3.7,7.8,2.1-2.9,4.7-6.4,7.7-10.5.1-.2.3-.3.4-.5,5.9-7.5,14.1-11.6,23.1-11.6s15.2,3,20.7,8.5c5.5,5.5,8.5,12.8,8.5,20.5s-.1,3.3-.4,4.9c9.2,3.2,17,7.9,23.1,14,1.1,1.1,2.2,2.3,3.3,3.6,2.1-.6,4.4-.9,6.7-1,.2,0,.7,0,.8,0,4.9,0,9.5,1.2,13.5,3.4,1.8.1,3.7.2,5.7.4,5.3.4,10.9.9,16.8,1.5,5.6.6,11.3,1.3,17,2,5.8.7,11.1,1.5,15.9,2.3,10.5,1.7,19.6,3.6,27.1,5.6,9.1,2.5,16.9,5.7,23,9.8,1.5,1,2.9,2,4.2,3.1,1.3-5.9,2.9-11.9,4.6-18.1,2.1-7.6,4.5-15,7-22,2.4-6.8,4.8-12.9,7.1-18.1,2.5-6.3,7.1-11.5,13-14.6,4.4-2.4,9.2-3.6,14-3.6s8.1.8,11.8,2.4c6,2.4,10.8,6.6,14,12,2.8,4.7,4.2,9.9,4.2,15s0,1.7-.1,2.6h3.7v-.4c0-7.7,2.8-15,8-20.4,5.5-5.8,13.1-9,21.4-9,17.2,0,29.6,12.4,29.6,29.4v.4h39.2c10,0,18.8,4.5,24.1,12.2,3.6,5.3,5.5,11.4,5.5,17.6s-2.5,14-7.2,19.5c-5.5,6.5-13.5,10.1-22.4,10.1h-39.2v.8h17.6c9.4,0,17.6,3.8,23.1,10.6,4.4,5.5,6.7,12,6.7,19s-3.2,15.9-9.1,21.5c-5.5,5.2-12.9,8.1-20.7,8.1h-17.6v9c4.2,0,8.4-.2,12.6-.3,11.7-.3,22.3-.9,31.4-1.8.7,0,1.4-.1,2.1-.1,7.4,0,14.2,2.4,19.6,6.8,2.5-.6,5-1.3,7.6-2.1,2.6-.8,4.9-1.5,7-2.3,1-.4,1.6-.6,1.8-.7.7-.4,1.5-.8,2.2-1.1,0,0,.1,0,.2,0,3.7-1.5,7.5-2.3,11.3-2.3s1,0,1.6,0c1.2-1.8,2.4-3.5,3.7-5.1-1.8-.5-3.5-1.2-5.1-2-3.2-1.6-6.9-2.9-11-4-1.6-.4-3.2-.7-4.4-.9-1-.1-2-.3-3-.6-7.3-1.9-13.4-6.3-17.1-12.4-3.8-6.3-4.9-14-2.9-21.5,1.7-6.5,5.5-12,10.8-15.6-3-6-3.7-12.8-1.9-19.6,1.7-6.7,6-12.5,11.9-16.2,4.4-2.8,9.5-4.2,14.6-4.2s3.2.1,4.8.4c.4,0,.7.1,1.1.2,3.8.9,7.4,1.8,10.6,2.8,3.4,1.1,6.9,2.4,10.5,4,3.3,1.5,7,3.4,11.1,5.6.2.1.5.3.7.4.9.6,1.8,1.1,2.6,1.8.6,0,1.2,0,1.8,0s.5,0,.7,0c0,0,.1,0,.1,0,26.2,1,51.5,4.6,75.2,10.7,7.4,1.9,13.5,6.7,17.2,13.3,3.5,6.3,4.4,13.6,2.6,20.5-1.5,5.9-4.9,11-9.6,14.6,2.3,2.4,4.1,5.2,5.4,8.3,2.4,5.8,2.8,12,1.3,17.9-1.8,6.9-6.1,12.8-12.1,16.6-2.5,1.6-5.2,2.7-8,3.4,2.1,7.7,2.6,17.6-.7,30-3,11.7-8.4,21-15.9,27.5-7.1,6.2-15.9,10.1-25.8,11.2.7.5,1.3,1.1,1.9,1.7,2,1.4,3.7,3.2,5.2,5.2,0,0,0,0,0,.1,2.5,3.5,3.9,7.6,4.2,11.9.2,2.5.2,5.3,0,8.6-.1,2.7-.3,5.4-.7,8.1.9,3.6.9,7.3.1,11-1.2,5.4-4.3,10.3-8.8,13.6-2.4,3.3-5.4,6-8.8,8.1-4.3,2.6-9.2,3.9-14.2,3.9s-2.6,0-3.9-.3c-7-.9-13.3-4.5-17.6-10-1.9-2.5-3.4-5.2-4.4-8-.4-.3-.8-.6-1.2-1-1.3,1.3-2.7,2.6-4.3,3.6-3.9,2.5-8.2,3.7-12.7,3.7s-2.1,0-3.1-.2c-3.5-.5-6.8-1.7-9.7-3.6-3.4,1-6.9,1.4-10.5,1.4s-3.8-.1-5.7-.4c-6.8-.9-12.9-3.3-18-7.2,0,0,0,0-.1,0-1.7.9-3.4,1.6-5.3,2.1,1.2,1.3,2.3,2.7,3.3,4.2,2.3,3.6,3.7,7.6,4.1,11.8,2-1.7,4.3-3,6.8-4,3.4-1.4,7-2.1,10.6-2.1s6.4.6,9.5,1.7c1.7.6,3.3,1.4,4.8,2.2,6.6,1.4,12.9,3.3,18.8,5.6,7.2,2.9,13.6,6.6,19,11,6.6,5.3,11.5,11.7,14.7,18.9,3.5,8.1,4.4,17.3,2.6,26.7-1.8,8.9-5.3,16.5-10.4,22.6-.5.7-1.1,1.3-1.7,1.9.4,1.4.6,2.9.9,4.4,1,6.6.8,13.1-.9,19.2-2.4,8.9-7.1,16.7-13.8,22.4-5.8,5-12.6,8.6-20.2,10.8-6.1,1.7-12.6,2.7-19.2,2.8-1.2,6.4-4.7,12.3-9.9,16.4-5,4-11.1,6.1-17.6,6.1s-1.2,0-1.8,0c-1.1,0-2.2-.2-3.3-.4-2.3-.5-4.5-1.2-6.5-2.2.2,1.3.3,2.7.3,4.1,0,.6,0,1.2,0,1.8-.1,1.9-.5,3.7-1,5.4,0,.4,0,.7,0,1.1-.9,13.3-12.6,22.9-27.9,22.9ZM437.3,468.3c.7,0,1.5,0,2.2,0,.5,0,.9,0,1.4.1-.2-3.4,0-6.8.7-10.2.2-1.1.5-2.3.8-3.4,0,0,0,.2-.1.2-2.5,4.1-5,8.6-7.6,13.3.9,0,1.8-.1,2.6-.1ZM365.9,460.6c0,1.1,0,2.1-.2,3.1.5,0,1.1,0,1.6,0s.8,0,1.2,0c2.7-1.6,5.8-2.7,9.1-3.1.3-2.5.9-4.9,1.9-7.2.9-2.3,2.1-4.9,3.9-8.3.5-1,1.1-1.9,1.6-3-5.2-2.7-9.4-7.1-11.9-12.5-2.6-5.6-3.4-11.8-2.2-17.9.6-3,1.7-5.8,3.1-8.4-.5-.4-1-.8-1.5-1.2-2.2.9-4.5,1.6-6.9,2.1v56.4ZM504.2,451.7c1.1-4,2.5-7.8,4.1-11.1-.9.2-1.9.4-2.8.5-.1,1.8-.4,3.6-.7,5.4-.3,1.7-.7,3.3-1.2,4.9.2,0,.4.2.6.3ZM489.7,338.2c10.5,2.5,19.5,5,26.8,7.6,7.6,2.7,13.8,6,18.9,10.1,3.4-1.4,6.9-2.1,10.6-2.1s3.6.2,5.4.5l3.5.7c2.4-5.3,6.3-9.6,11.5-12.4,0,0,0,0,0,0-.8-.5-1.7-1.1-2.4-1.7-2.6,1-5.4,1.5-8.2,1.5s-2.1,0-3.1-.2c-3-.4-5.9-1.4-8.4-2.8-.8.2-1.7.4-2.6.5-1.8.3-3.5.4-5.3.4h-.5c-1.7,0-3.4-.1-5.1-.3-4.4-.6-8.5-1.9-12.4-3.9-1.7.4-3.4.6-5.1.6s-2.1,0-3.1-.2c-1.9-.3-3.8-.8-5.7-1.5-.9-.4-1.8-.8-2.7-1.3-.2,0-.4-.2-.6-.3-2.7,1.1-5.7,1.6-8.7,1.6s-2.1,0-3.1-.2c0,0,0,0-.1,0,.2,1.1.4,2.2.5,3.4ZM365.7,346.2c.7.1,1.4.3,2.1.4.2-1.1.4-2.3.7-3.6,0,0,0-.1,0-.1.2-.9.4-1.7.7-2.6,2.6-8.2,8.4-14.4,16.1-17.4,3.5-1.4,7.1-2.1,10.8-2.1s3.7.2,5.5.5c3.2.6,6.3,1.9,9,3.6,3.2.4,6.6.8,10.1,1.3,2.1.3,4.2.5,6.3.8-1.2-1-2.3-2.2-3.3-3.5-1.9-2.5-3.4-5.2-4.4-8-4.2-3.4-7.5-7.8-9.7-12.8-2.5-6-3.4-12.2-2.6-18.6.9-6.7,3.5-12.8,7.7-17.8,1.8-2.2,3.9-4.2,6.2-5.8-1.9-1.6-3.6-3.5-5-5.5-.9-1.3-1.6-2.5-2.3-3.9-2.2,7.1-4.6,14.1-6.9,20.9-.1.4-.3.8-.4,1.2h0c-.1.5-.3.8-.5,1.2-2.9,6.1-7.4,10.7-13.1,13.5-3.9,1.9-8,2.8-12.2,2.8s-.7,0-1,0c2.7,4.6,4.2,9.9,4.2,15.3s-2.8,14.7-8,20.2c-2.9,3.1-6.4,5.5-10.2,7v12.9ZM571.1,273.4c1.5,0,3.1.1,4.6.3,6.8.9,12.8,3.5,17.7,7.6,3,2.5,5.5,5.5,7.5,8.9,3.6-3.9,8.1-6.9,13.2-8.8,4.2-1.6,8.7-2.4,13.4-2.4s3.8.1,5.7.4c6,.8,11.4,2.7,16.1,5.7.9-.1,1.8-.2,2.7-.2s2.1,0,3.1.2c3.7.5,7.1,1.8,10,3.8,1.2-.1,2.4-.2,3.6-.2,1.7,0,3.5.1,5.2.3,1,.1,2,.3,3,.5-6-2.2-11.4-4.8-16.1-7.9-6.5-4.2-11.8-9.7-15.6-15.9-.6.2-1.2.4-1.9.6-3.2,1.1-6.5,2.1-9.8,3-3.3.9-6.3,1.7-9,2.2-3.8.8-6.6,1.2-9.3,1.2s-.7,0-.7,0c-1.1,0-2.1-.1-3.2-.3-3.6-.6-7-1.8-10.1-3.5,0,0,0,0,0,0-.6,0-1.2.1-1.8.2-13.5.8-26.3,1.4-38.2,1.8-2.3,0-4.5.1-6.8.2.1,0,.3.2.4.3,1-.1,2-.2,3-.2,1.8,0,3.5.2,5.2.6,1.8.4,3.5,1,5.1,1.8,1,0,2.1-.1,3.1-.1ZM429.5,183c-.4,4.2-1,8.8-1.8,13.6-.8,5.1-1.9,10.4-3.1,15.9,4.4-2.9,9.6-4.4,15.1-4.4s3,.1,4.5.3c6.5.7,13.8,1.3,21.9,1.8,8.4.5,17,.9,25.5,1.2v-8.6h-17.6c-9.6,0-18.2-4.3-23.6-11.7-1.8-2.5-3.2-5.1-4.2-7.9-2.5.7-5.1,1-7.8,1s-6-.4-8.8-1.3ZM236,184.6c.5,0,1,0,1.5,0-3.1-2-5.8-4.4-7.9-7.2-1.4,2.5-2.9,4.9-4.6,7.2h11ZM469.3,144c1.5-.2,3.1-.3,4.7-.3h17.6v-.8h-22c0,.1-.2.9-.3,1.1Z"/>
    <path class="cls-5" d="M550.9,552.8c-.7,0-1.4,0-2.1,0-3-.2-5.9-.8-8.6-1.8-1.9.5-3.9.8-5.9.8s-1.1,0-1.6,0c-1.4,0-2.8-.3-4.1-.7-.8,0-1.7.1-2.5.1s-1.1,0-1.6,0c-1.2,0-2.4-.3-3.5-.5-.4,0-.8,0-1.2,0l-10.5-.7c-2.7-.2-5.2-.8-7.6-1.7-2.1.6-4.2.9-6.4.9s-1.1,0-1.6,0c-1.8-.1-3.6-.5-5.3-1-1.4.2-2.9.3-4.4.3s-1.4,0-2.2,0c-3.1-.2-6-.9-8.8-1.9-2.1.5-4.4.7-6.7.7s-1.4,0-2.2,0c-2.2-.2-4.4-.5-6.5-1.1-1.2.2-2.4.3-3.6.3s-1.1,0-1.6,0c-1.9-.1-3.7-.5-5.4-1-1.2.2-2.5.3-3.8.3h0c-.5,0-1.1,0-1.6,0-1.6-.1-3.1-.4-4.6-.8-1.1.1-2.3.2-3.5.2s-1.6,0-2.5,0c-3-.2-5.8-.8-8.5-1.8-2.2.5-4.5.7-6.8.7s-1.6,0-2.4,0c-3.8-.3-7.4-1.1-10.8-2.5-2.3.7-4.7,1.2-7.2,1.2s-1.1,0-1.6,0c-1.8-.1-3.6-.5-5.3-1-1.3.2-2.5.3-3.8.3s-1.1,0-1.6,0c-1.8-.1-3.6-.5-5.3-1-1.4.2-2.9.3-4.3.3s-1.4,0-2.2,0c-8.3-.6-15.8-4.3-20.9-10.6-4.1-4.9-6.4-11.1-6.7-17.6-.3,0-.6,0-.9,0-.7,0-1.4,0-2.1,0-3.7-.3-7.1-1.1-10.3-2.5-2.3.8-4.8,1.2-7.3,1.2s-1.1,0-1.6,0c-1.7-.1-3.3-.4-4.9-.9-1.3.1-2.6.2-4,.2s-1.4,0-2.1,0c-2.4-.2-4.6-.6-6.8-1.2-1.6.3-3.2.4-4.8.4s-1.3,0-1.9,0c-1.8-.1-3.6-.4-5.3-.9-1,.1-2,.2-3.1.2s-1.1,0-1.6,0c-1.8-.1-3.6-.5-5.3-1-1.3.2-2.5.3-3.9.3s-1.1,0-1.6,0c-1.2,0-2.3-.2-3.4-.5-.4,0-.9,0-1.4,0s-1.1,0-1.7,0c-2.4-.2-4.8-.7-7-1.6-1.8.5-3.7.7-5.7.7s-1.1,0-1.6,0c-.9,0-1.8-.2-2.7-.3-.4,0-.8,0-1.1,0s-1.1,0-1.6,0c-.9,0-1.8-.2-2.7-.3-.7,0-1.3,0-2,0s-1.4,0-2.1,0c-2-.1-3.9-.5-5.7-.9-.9.1-1.9.2-2.8.2s-1.1,0-1.6,0c-1.6-.1-3.2-.4-4.7-.8-1.1.1-2.3.2-3.5.2s-1.6,0-2.5,0c-2.8-.2-5.5-.8-8-1.7-2,.4-4.2.6-6.4.6s-1.4,0-2.1,0c-2.5-.2-4.9-.6-7.2-1.4-4.1,3.5-9.4,5.7-15.2,5.7s-1.1,0-1.6,0c-6-.4-11.3-3.1-15.2-7.1-14.7-2.6-25.4-14.3-24.5-27.6.1-2.1.6-4.1,1.2-6-.2-1.6-.2-3.2-.1-4.9,1-14.2,12.9-24.9,27.9-25.4-1.9-3-3.6-6.1-4.9-9.5-2.6-1.4-5.1-3.1-7.3-5.2-7.1-6.8-10.1-16.3-8.2-25.8,1.6-11.3,3.5-21.7,5.7-30.8,2.3-9.2,5-18.4,8.1-27.3v-.4c-1.7-1.1-3.5-2.4-5.1-4-5.8-5.5-9.1-13.1-9.1-21.3s3.4-16.1,9.6-21.6c5.5-4.9,12.6-7.6,20-7.6h61.6c.2,0,.3,0,.5,0,1.9-3.8,4.6-7.1,8-9.7,5.4-4.1,11.7-6.3,18.3-6.3h33.7l-31.5-5.2c-2.8,1-5.9,1.5-9,1.5s-3.3-.1-5-.4c-.9-.1-1.8-.4-2.7-.6-7.9-2.3-14-7.3-17.3-14.1-2.3-4.8-3.2-10-2.6-15.2,0-.3,0-.6,0-.9-2.5.6-5,1-7.7,1h-15c-.7,1.3-1.4,2.6-2.1,3.9-4.2,7.1-9.4,13.4-15.6,18.9-6.7,5.9-14.3,10.2-22.6,12.8-2.7.8-5.5,1.3-8.7,1.3-7.3,0-14.4-2.9-19.9-8.1-5.8-5.5-9.1-13.1-9.1-21.3s.3-5.1.9-7.4h-20.9c-9.3,0-17.8-4.1-23.1-11.2-4-5.3-6.1-11.5-6.1-17.8s2.7-14.2,7.5-19.6c5.5-6.2,13.2-9.6,21.7-9.6h22.2c-.1-1-.2-2.1-.2-3.2,0-4.3.8-8.4,2.4-12-1.2.1-2.3.2-3.5.2-6.2,0-12.1-2-16.9-5.6-1.6,4.7-4.2,8.8-7.9,12-5.3,4.7-12.1,7.3-19.1,7.3s-13.1-2.1-18.3-6.1c-5.9-4.5-9.7-11.3-10.9-19.1,0-.5-.1-.9-.2-1.4l-3.7-47.7c-1.4-11,3.3-21.2,12.5-27,5.3-3.3,10.9-5,16.6-5s2.7,0,4,.3c.2-7.2,3.2-14,8.5-19.3,5.5-5.5,12.9-8.5,20.7-8.5s11.8,1.8,16.5,5.1c5.4-4.7,12.2-7.3,19.3-7.3s10,1.3,14.5,3.8c5.3,3,9.4,7.5,12,13,1.4,2.9,2.7,5.5,3.7,7.8,2.1-2.9,4.7-6.4,7.7-10.5.1-.2.3-.3.4-.5,5.9-7.5,14.1-11.6,23.1-11.6s15.2,3,20.7,8.5c5.5,5.5,8.5,12.8,8.5,20.5s-.1,3.3-.4,4.9c9.2,3.2,17,7.9,23.1,14,1.1,1.1,2.2,2.3,3.3,3.6,2.1-.6,4.4-.9,6.7-1,.2,0,.7,0,.8,0,4.9,0,9.5,1.2,13.5,3.4,1.8.1,3.7.2,5.7.4,5.3.4,10.9.9,16.8,1.5,5.6.6,11.3,1.3,17,2,5.8.7,11.1,1.5,15.9,2.3,10.5,1.7,19.6,3.6,27.1,5.6,9.1,2.5,16.9,5.7,23,9.8,1.5,1,2.9,2,4.2,3.1,1.3-5.9,2.9-11.9,4.6-18.1,2.1-7.6,4.5-15,7-22,2.4-6.8,4.8-12.9,7.1-18.1,2.5-6.3,7.1-11.5,13-14.6,4.4-2.4,9.2-3.6,14-3.6s8.1.8,11.8,2.4c6,2.4,10.8,6.6,14,12,2.8,4.7,4.2,9.9,4.2,15s0,1.7-.1,2.6h3.7v-.4c0-7.7,2.8-15,8-20.4,5.5-5.8,13.1-9,21.4-9,17.2,0,29.6,12.4,29.6,29.4v.4h39.2c10,0,18.8,4.5,24.1,12.2,3.6,5.3,5.5,11.4,5.5,17.6s-2.5,14-7.2,19.5c-5.5,6.5-13.5,10.1-22.4,10.1h-39.2v.8h17.6c9.4,0,17.6,3.8,23.1,10.6,4.4,5.5,6.7,12,6.7,19s-3.2,15.9-9.1,21.5c-5.5,5.2-12.9,8.1-20.7,8.1h-17.6v9c4.2,0,8.4-.2,12.6-.3,11.7-.3,22.3-.9,31.4-1.8.7,0,1.4-.1,2.1-.1,7.4,0,14.2,2.4,19.6,6.8,2.5-.6,5-1.3,7.6-2.1,2.6-.8,4.9-1.5,7-2.3,1-.4,1.6-.6,1.8-.7.7-.4,1.5-.8,2.2-1.1,0,0,.1,0,.2,0,3.7-1.5,7.5-2.3,11.3-2.3s1,0,1.6,0c1.2-1.8,2.4-3.5,3.7-5.1-1.8-.5-3.5-1.2-5.1-2-3.2-1.6-6.9-2.9-11-4-1.6-.4-3.2-.7-4.4-.9-1-.1-2-.3-3-.6-7.3-1.9-13.4-6.3-17.1-12.4-3.8-6.3-4.9-14-2.9-21.5,1.7-6.5,5.5-12,10.8-15.6-3-6-3.7-12.8-1.9-19.6,1.7-6.7,6-12.5,11.9-16.2,4.4-2.8,9.5-4.2,14.6-4.2s3.2.1,4.8.4c.4,0,.7.1,1.1.2,3.8.9,7.4,1.8,10.6,2.8,3.4,1.1,6.9,2.4,10.5,4,3.3,1.5,7,3.4,11.1,5.6.2.1.5.3.7.4.9.6,1.8,1.1,2.6,1.8.6,0,1.2,0,1.8,0s.5,0,.7,0c0,0,.1,0,.1,0,26.2,1,51.5,4.6,75.2,10.7,7.4,1.9,13.5,6.7,17.2,13.3,3.5,6.3,4.4,13.6,2.6,20.5-1.5,5.9-4.9,11-9.6,14.6,2.3,2.4,4.1,5.2,5.4,8.3,2.4,5.8,2.8,12,1.3,17.9-1.8,6.9-6.1,12.8-12.1,16.6-2.5,1.6-5.2,2.7-8,3.4,2.1,7.7,2.6,17.6-.7,30-3,11.7-8.4,21-15.9,27.5-7.1,6.2-15.9,10.1-25.8,11.2.7.5,1.3,1.1,1.9,1.7,2,1.4,3.7,3.2,5.2,5.2,0,0,0,0,0,.1,2.5,3.5,3.9,7.6,4.2,11.9.2,2.5.2,5.3,0,8.6-.1,2.7-.3,5.4-.7,8.1.9,3.6.9,7.3.1,11-1.2,5.4-4.3,10.3-8.8,13.6-2.4,3.3-5.4,6-8.8,8.1-4.3,2.6-9.2,3.9-14.2,3.9s-2.6,0-3.9-.3c-7-.9-13.3-4.5-17.6-10-1.9-2.5-3.4-5.2-4.4-8-.4-.3-.8-.6-1.2-1-1.3,1.3-2.7,2.6-4.3,3.6-3.9,2.5-8.2,3.7-12.7,3.7s-2.1,0-3.1-.2c-3.5-.5-6.8-1.7-9.7-3.6-3.4,1-6.9,1.4-10.5,1.4s-3.8-.1-5.7-.4c-6.8-.9-12.9-3.3-18-7.2,0,0,0,0-.1,0-1.7.9-3.4,1.6-5.3,2.1,1.2,1.3,2.3,2.7,3.3,4.2,2.3,3.6,3.7,7.6,4.1,11.8,2-1.7,4.3-3,6.8-4,3.4-1.4,7-2.1,10.6-2.1s6.4.6,9.5,1.7c1.7.6,3.3,1.4,4.8,2.2,6.6,1.4,12.9,3.3,18.8,5.6,7.2,2.9,13.6,6.6,19,11,6.6,5.3,11.5,11.7,14.7,18.9,3.5,8.1,4.4,17.3,2.6,26.7-1.8,8.9-5.3,16.5-10.4,22.6-.5.7-1.1,1.3-1.7,1.9.4,1.4.6,2.9.9,4.4,1,6.6.8,13.1-.9,19.2-2.4,8.9-7.1,16.7-13.8,22.4-5.8,5-12.6,8.6-20.2,10.8-6.1,1.7-12.6,2.7-19.2,2.8-1.2,6.4-4.7,12.3-9.9,16.4-5,4-11.1,6.1-17.6,6.1s-1.2,0-1.8,0c-1.1,0-2.2-.2-3.3-.4-2.3-.5-4.5-1.2-6.5-2.2.2,1.3.3,2.7.3,4.1,0,.6,0,1.2,0,1.8-.1,1.9-.5,3.7-1,5.4,0,.4,0,.7,0,1.1-.9,13.3-12.6,22.9-27.9,22.9ZM427.3,458.3c.7,0,1.5,0,2.2,0,.5,0,.9,0,1.4.1-.2-3.4,0-6.8.7-10.2.2-1.1.5-2.3.8-3.4,0,0,0,.2-.1.2-2.5,4.1-5,8.6-7.6,13.3.9,0,1.8-.1,2.6-.1ZM355.9,450.6c0,1.1,0,2.1-.2,3.1.5,0,1.1,0,1.6,0s.8,0,1.2,0c2.7-1.6,5.8-2.7,9.1-3.1.3-2.5.9-4.9,1.9-7.2.9-2.3,2.1-4.9,3.9-8.3.5-1,1.1-1.9,1.6-3-5.2-2.7-9.4-7.1-11.9-12.5-2.6-5.6-3.4-11.8-2.2-17.9.6-3,1.7-5.8,3.1-8.4-.5-.4-1-.8-1.5-1.2-2.2.9-4.5,1.6-6.9,2.1v56.4ZM494.2,441.7c1.1-4,2.5-7.8,4.1-11.1-.9.2-1.9.4-2.8.5-.1,1.8-.4,3.6-.7,5.4-.3,1.7-.7,3.3-1.2,4.9.2,0,.4.2.6.3ZM479.7,328.2c10.5,2.5,19.5,5,26.8,7.6,7.6,2.7,13.8,6,18.9,10.1,3.4-1.4,6.9-2.1,10.6-2.1s3.6.2,5.4.5l3.5.7c2.4-5.3,6.3-9.6,11.5-12.4,0,0,0,0,0,0-.8-.5-1.7-1.1-2.4-1.7-2.6,1-5.4,1.5-8.2,1.5s-2.1,0-3.1-.2c-3-.4-5.9-1.4-8.4-2.8-.8.2-1.7.4-2.6.5-1.8.3-3.5.4-5.3.4h-.5c-1.7,0-3.4-.1-5.1-.3-4.4-.6-8.5-1.9-12.4-3.9-1.7.4-3.4.6-5.1.6s-2.1,0-3.1-.2c-1.9-.3-3.8-.8-5.7-1.5-.9-.4-1.8-.8-2.7-1.3-.2,0-.4-.2-.6-.3-2.7,1.1-5.7,1.6-8.7,1.6s-2.1,0-3.1-.2c0,0,0,0-.1,0,.2,1.1.4,2.2.5,3.4ZM355.7,336.2c.7.1,1.4.3,2.1.4.2-1.1.4-2.3.7-3.6,0,0,0-.1,0-.1.2-.9.4-1.7.7-2.6,2.6-8.2,8.4-14.4,16.1-17.4,3.5-1.4,7.1-2.1,10.8-2.1s3.7.2,5.5.5c3.2.6,6.3,1.9,9,3.6,3.2.4,6.6.8,10.1,1.3,2.1.3,4.2.5,6.3.8-1.2-1-2.3-2.2-3.3-3.5-1.9-2.5-3.4-5.2-4.4-8-4.2-3.4-7.5-7.8-9.7-12.8-2.5-6-3.4-12.2-2.6-18.6.9-6.7,3.5-12.8,7.7-17.8,1.8-2.2,3.9-4.2,6.2-5.8-1.9-1.6-3.6-3.5-5-5.5-.9-1.3-1.6-2.5-2.3-3.9-2.2,7.1-4.6,14.1-6.9,20.9-.1.4-.3.8-.4,1.2h0c-.1.5-.3.8-.5,1.2-2.9,6.1-7.4,10.7-13.1,13.5-3.9,1.9-8,2.8-12.2,2.8s-.7,0-1,0c2.7,4.6,4.2,9.9,4.2,15.3s-2.8,14.7-8,20.2c-2.9,3.1-6.4,5.5-10.2,7v12.9ZM561.1,263.4c1.5,0,3.1.1,4.6.3,6.8.9,12.8,3.5,17.7,7.6,3,2.5,5.5,5.5,7.5,8.9,3.6-3.9,8.1-6.9,13.2-8.8,4.2-1.6,8.7-2.4,13.4-2.4s3.8.1,5.7.4c6,.8,11.4,2.7,16.1,5.7.9-.1,1.8-.2,2.7-.2s2.1,0,3.1.2c3.7.5,7.1,1.8,10,3.8,1.2-.1,2.4-.2,3.6-.2,1.7,0,3.5.1,5.2.3,1,.1,2,.3,3,.5-6-2.2-11.4-4.8-16.1-7.9-6.5-4.2-11.8-9.7-15.6-15.9-.6.2-1.2.4-1.9.6-3.2,1.1-6.5,2.1-9.8,3-3.3.9-6.3,1.7-9,2.2-3.8.8-6.6,1.2-9.3,1.2s-.7,0-.7,0c-1.1,0-2.1-.1-3.2-.3-3.6-.6-7-1.8-10.1-3.5,0,0,0,0,0,0-.6,0-1.2.1-1.8.2-13.5.8-26.3,1.4-38.2,1.8-2.3,0-4.5.1-6.8.2.1,0,.3.2.4.3,1-.1,2-.2,3-.2,1.8,0,3.5.2,5.2.6,1.8.4,3.5,1,5.1,1.8,1,0,2.1-.1,3.1-.1ZM419.5,173c-.4,4.2-1,8.8-1.8,13.6-.8,5.1-1.9,10.4-3.1,15.9,4.4-2.9,9.6-4.4,15.1-4.4s3,.1,4.5.3c6.5.7,13.8,1.3,21.9,1.8,8.4.5,17,.9,25.5,1.2v-8.6h-17.6c-9.6,0-18.2-4.3-23.6-11.7-1.8-2.5-3.2-5.1-4.2-7.9-2.5.7-5.1,1-7.8,1s-6-.4-8.8-1.3ZM226,174.6c.5,0,1,0,1.5,0-3.1-2-5.8-4.4-7.9-7.2-1.4,2.5-2.9,4.9-4.6,7.2h11ZM459.3,134c1.5-.2,3.1-.3,4.7-.3h17.6v-.8h-22c0,.1-.2.9-.3,1.1Z"/>
    <path class="cls-7" d="M550.9,550.8c-.7,0-1.3,0-2,0-3.1-.2-5.9-.9-8.6-1.9-1.9.5-3.9.8-6,.8s-1,0-1.5,0c-1.4,0-2.8-.3-4.1-.7-.9.1-1.8.2-2.7.2s-1,0-1.5,0c-1.2,0-2.3-.3-3.4-.5-.4,0-.9,0-1.3,0l-10.5-.7c-2.7-.2-5.3-.8-7.7-1.8-2.1.7-4.3,1-6.5,1s-1,0-1.5,0c-1.8-.1-3.6-.5-5.3-1.1-1.5.2-3,.4-4.6.4s-1.4,0-2,0c-3.1-.2-6-.9-8.7-2-2.2.6-4.5.8-6.8.8s-1.4,0-2,0c-2.2-.2-4.4-.6-6.5-1.2-1.2.2-2.5.3-3.8.3s-1,0-1.5,0c-1.9-.1-3.7-.5-5.4-1.1-1.3.2-2.6.4-3.9.4h0c-.5,0-1,0-1.5,0-1.6-.1-3.1-.4-4.5-.8-1.2.1-2.4.2-3.6.2s-1.6,0-2.3,0c-3-.2-5.8-.9-8.5-1.9-2.2.5-4.6.8-7,.8s-1.5,0-2.3,0c-3.8-.3-7.5-1.2-10.8-2.7-2.3.8-4.7,1.3-7.3,1.3s-1,0-1.5,0c-1.8-.1-3.6-.5-5.2-1-1.3.2-2.6.4-4,.4s-1,0-1.5,0c-1.8-.1-3.6-.5-5.2-1-1.5.2-3,.4-4.5.4s-1.4,0-2,0c-7.8-.5-14.7-4-19.5-9.9-4.2-5.1-6.4-11.6-6.2-18.4-.9,0-1.9.1-2.8.1s-1.3,0-2,0c-3.7-.3-7.1-1.2-10.2-2.6-2.3.8-4.8,1.3-7.5,1.3s-1,0-1.5,0c-1.7-.1-3.3-.4-4.9-.9-1.4.2-2.7.3-4.2.3s-1.3,0-2,0c-2.4-.2-4.7-.6-6.8-1.3-1.6.3-3.3.4-5,.4s-1.2,0-1.8,0c-1.8-.1-3.6-.4-5.3-1-1.1.2-2.1.2-3.2.2s-1,0-1.5,0c-1.8-.1-3.6-.5-5.2-1-1.3.2-2.6.4-4,.4s-1,0-1.5,0c-1.2,0-2.3-.3-3.4-.5-.5,0-1,0-1.5,0s-1,0-1.5,0c-2.5-.2-4.8-.7-7-1.7-1.9.5-3.8.8-5.8.8s-1,0-1.5,0c-.9,0-1.8-.2-2.7-.4-.4,0-.8,0-1.3,0s-1,0-1.5,0c-.9,0-1.9-.2-2.8-.4-.7,0-1.4,0-2.1,0s-1.3,0-1.9,0c-2-.1-3.9-.5-5.7-1-1,.1-2,.2-3,.2s-1,0-1.5,0c-1.6-.1-3.2-.4-4.6-.8-1.2.1-2.4.2-3.6.2s-1.6,0-2.3,0c-2.8-.2-5.5-.8-8-1.7-2.1.4-4.3.7-6.6.7s-1.3,0-2,0c-2.8-.2-5.4-.8-7.8-1.6-3.8,3.7-9,5.9-14.7,5.9s-1,0-1.5,0c-5.7-.4-10.8-3-14.3-7-14-2.1-24.3-13.1-23.5-25.6.1-2.1.6-4.1,1.3-5.9-.2-1.6-.3-3.3-.2-4.9.9-13.4,12.5-23.5,26.9-23.5s1.5,0,2.2,0c.2,0,.5,0,.7,0-3-3.9-5.5-8.3-7.3-13-2.7-1.3-5.3-3.1-7.5-5.2-6.6-6.3-9.4-15.2-7.7-24,1.5-11.3,3.5-21.6,5.7-30.7,2.3-9.2,5-18.3,8-27.1.2-.7.5-1.3.7-2-2.3-1.2-4.4-2.7-6.3-4.5-5.4-5.2-8.5-12.2-8.5-19.8s3.2-15,8.9-20.2c5.2-4.6,11.6-7,18.7-7h61.6c.6,0,1.2,0,1.8,0,1.8-4,4.5-7.5,8-10.1,5.1-3.9,11-5.9,17-5.9h58.5c-6.3-1-13.6-2.2-22-3.6l-34.5-5.7c-2.8,1-5.7,1.5-8.8,1.5s-3.1-.1-4.6-.4c-.8-.1-1.7-.3-2.5-.6-7.3-2.2-13-6.8-16-13.1-2.2-4.5-3-9.3-2.5-14.1,0-1.3.2-2.6.3-3.9-3.1,1.1-6.4,1.7-9.9,1.7h-16.3c-.8,1.7-1.7,3.3-2.6,4.9-4.1,6.9-9.2,13.1-15.2,18.4-6.5,5.7-13.9,9.9-21.9,12.4-2.5.8-5.1,1.2-8.1,1.2-6.8,0-13.4-2.7-18.5-7.6-5.4-5.2-8.5-12.2-8.5-19.8s.6-6.5,1.6-9.4h-23.6c-8.7,0-16.5-3.8-21.5-10.4-3.7-5-5.7-10.7-5.7-16.6s2.5-13.2,7-18.3c5.2-5.8,12.3-8.9,20.2-8.9h24.5c-.3-1.7-.5-3.4-.5-5.2,0-5.5,1.4-10.6,4-14.7-.4,0-1.4.3-1.5.3-1.9.4-3.8.6-5.6.6-6.5,0-12.7-2.4-17.4-6.6-.2-.2-.4-.4-.6-.5-1.2,5.6-4,10.4-8.1,14-5,4.4-11.3,6.8-17.8,6.8s-12.3-2-17.1-5.6c-5.5-4.2-9.1-10.5-10.1-17.8,0-.4-.1-.8-.1-1.3l-3.8-47.8c-1.4-10.2,3-19.7,11.5-25,5-3.1,10.2-4.7,15.5-4.7s4.1.2,6,.7c0-.5,0-1,0-1.5,0-7,2.8-13.7,7.9-18.8,5.1-5.1,12-8,19.3-8s12.1,2,16.7,5.6c.3-.3.6-.6,1-.9,5-4.5,11.5-6.9,18.2-6.9s9.3,1.2,13.5,3.6c4.9,2.8,8.8,7,11.1,12.1,2.1,4.3,3.8,8,5.2,10.8,2.5-3.4,5.7-7.8,9.7-13.2.1-.2.2-.3.4-.5,5.5-7,13.1-10.8,21.5-10.8s14.1,2.8,19.3,8c5.1,5.1,7.9,11.9,7.9,19s-.3,4.2-.8,6.3c9.7,3.1,17.7,7.8,24,14.1,1.3,1.3,2.6,2.8,3.9,4.6,2.4-.8,4.9-1.2,7.5-1.3.2,0,.6,0,.7,0,4.7,0,9.1,1.2,13,3.4,1.9.1,4,.2,6.1.4,5.3.4,10.9.9,16.7,1.5,5.6.6,11.3,1.3,17,2,5.7.7,11.1,1.5,15.8,2.3,10.4,1.7,19.4,3.6,26.9,5.6,8.9,2.4,16.5,5.6,22.4,9.5,2.4,1.6,4.6,3.3,6.5,5.1,1.5-6.8,3.2-14,5.3-21.3,2.1-7.6,4.5-15,6.9-21.9,2.4-6.8,4.8-12.8,7.1-18,2.4-5.9,6.6-10.7,12.1-13.6,4.2-2.2,8.6-3.3,13.1-3.3s7.6.8,11,2.3c5.6,2.3,10.1,6.1,13.1,11.2,2.6,4.4,3.9,9.2,3.9,14s-.1,3.2-.4,4.6h8v-2.4c0-7.2,2.6-14,7.4-19,5.1-5.4,12.2-8.4,20-8.4,16,0,27.6,11.5,27.6,27.4v2.4h41.2c9.3,0,17.5,4.1,22.4,11.4,3.4,5,5.2,10.6,5.2,16.4s-2.3,13-6.7,18.2c-5.2,6.1-12.6,9.4-20.9,9.4h-41.2v4.8h19.6c8.8,0,16.5,3.5,21.6,9.9,4.1,5.1,6.2,11.2,6.2,17.7s-3,14.9-8.4,20c-5.2,4.9-12,7.6-19.4,7.6h-19.6v13c4.8,0,9.7-.2,14.6-.3,11.7-.3,22.3-.9,31.6-1.8.6,0,1.3,0,1.9,0,7.3,0,13.9,2.4,19.1,7,.3,0,.6-.1.9-.2,2.5-.6,5.2-1.4,7.8-2.2,2.6-.8,5-1.5,7.1-2.3,1.2-.4,1.8-.7,2-.8.7-.4,1.4-.7,2.1-1,0,0,.1,0,.2,0,3.5-1.4,7-2.1,10.6-2.1s1.8,0,2.6.1c1.9-3.1,4-5.9,6.4-8.3-.7-.1-1.5-.3-2.2-.5-2.1-.6-4-1.3-5.8-2.2-3.4-1.7-7.2-3-11.4-4.1-1.7-.4-3.3-.8-4.7-.9-.9-.1-1.8-.3-2.7-.5-6.8-1.8-12.5-5.9-15.9-11.5-3.6-5.8-4.5-12.9-2.7-20,1.7-6.7,5.8-12.1,11.5-15.4-3.5-5.9-4.4-12.9-2.6-19.8,1.6-6.2,5.5-11.6,11-15,4.1-2.6,8.8-3.9,13.6-3.9s3,.1,4.4.4c.3,0,.7.1,1,.2,3.7.8,7.2,1.8,10.4,2.8,3.4,1.1,6.8,2.4,10.2,3.9,3.2,1.5,6.9,3.3,10.9,5.5.2.1.4.2.7.4,1.1.7,2.1,1.4,3.1,2.1.2,0,.4,0,.6,0,.6,0,1.1,0,1.7,0s.4,0,.6,0c0,0,.1,0,.1,0,26.1,1,51.2,4.6,74.7,10.7,6.9,1.8,12.5,6.2,15.9,12.4,3.2,5.9,4.1,12.6,2.4,19-1.6,6.3-5.5,11.5-10.8,14.9,2.9,2.5,5.2,5.6,6.7,9.3,2.2,5.4,2.6,11.1,1.2,16.6-1.7,6.4-5.6,11.9-11.2,15.4-2.9,1.8-6.1,3-9.4,3.5,2.5,7.7,3.4,17.9,0,31-2.9,11.3-8.1,20.2-15.3,26.5-7.4,6.5-16.9,10.3-27.4,11-1,0-1.9.1-2.9.1,2.4,1.3,4.6,3,6.5,4.8,1.9,1.3,3.5,3,4.9,4.9,0,0,0,0,0,.1,2.3,3.2,3.6,7,3.9,10.9.2,2.4.2,5.2,0,8.3-.1,2.8-.4,5.6-.7,8.3.9,3.4,1,6.9.2,10.4-1.1,5-4.1,9.6-8.3,12.6-2.3,3.2-5.1,5.8-8.4,7.8-3.9,2.4-8.5,3.6-13.2,3.6s-2.4,0-3.6-.2c-6.5-.9-12.3-4.1-16.3-9.2-1.9-2.4-3.3-5.1-4.2-8-1.1-.8-2.1-1.7-3-2.7-1.5,1.9-3.2,3.5-5.2,4.8-3.5,2.2-7.5,3.4-11.6,3.4s-1.9,0-2.8-.2c-3.5-.5-6.8-1.8-9.7-3.8-3.4,1.1-7.1,1.6-10.8,1.6s-3.6-.1-5.4-.4c-6.5-.9-12.2-3.1-17.1-6.8-.4-.3-.8-.6-1.1-.9-3,1.8-6.3,2.9-9.8,3.2,2.3,1.8,4.3,4,5.9,6.5,2.7,4.3,4.1,9.2,4,14.2l.8.2c2.4-2.5,5.3-4.5,8.5-5.9,3.2-1.3,6.5-2,9.9-2s6,.5,8.8,1.6c1.7.6,3.3,1.4,4.8,2.2,6.6,1.4,12.9,3.3,18.7,5.6,7,2.8,13.2,6.4,18.5,10.7,6.3,5.1,11.1,11.2,14.1,18.2,3.4,7.7,4.2,16.5,2.4,25.5-1.7,8.6-5.1,15.9-10,21.7-.8.9-1.6,1.8-2.4,2.6.5,1.7.8,3.5,1.1,5.2,1,6.3.7,12.5-.8,18.3-2.3,8.5-6.8,16-13.2,21.4-5.5,4.8-12.1,8.3-19.5,10.4-6.2,1.8-12.8,2.7-19.6,2.8,0,0-.8,0-.9,0-.8,6.6-4.1,12.6-9.4,16.8-4.7,3.7-10.3,5.7-16.4,5.7s-1.2,0-1.8,0c-.9,0-1.9-.2-2.9-.4-3.7-.8-7.1-2.3-10-4.4.9,2.6,1.4,5.4,1.4,8.3,0,.5,0,1.1,0,1.6-.1,1.8-.5,3.6-1,5.2,0,.4,0,.8,0,1.2-.8,12.2-11.7,21-25.9,21ZM498.4,486.5c1.1.1,2.1.3,3.1.5-.5-.7-1-1.4-1.4-2.1-.5.5-1.1,1.1-1.7,1.5ZM427.3,460.3c.7,0,1.4,0,2,0,1.3,0,2.5.3,3.7.5-.5-4-.3-8.1.5-12.2.5-2.6,1.2-5.2,2.2-7.8-.9-.2-1.9-.4-2.9-.5-.7,1.2-1.5,2.5-2.3,3.8-3,5.1-6.2,10.6-9.3,16.4.3,0,.6.2.9.3,1.7-.3,3.4-.5,5.1-.5ZM353.9,450.6c0,1.8-.2,3.6-.5,5.3,1.3-.2,2.6-.3,4-.3s1.1,0,1.7,0c3.1-1.9,6.6-3.1,10.5-3.2.2-2.9.8-5.7,1.9-8.4.8-2.2,2-4.8,3.8-8.1.8-1.5,1.7-3.1,2.7-4.8-5.7-2.4-10.2-6.8-12.9-12.5-2.4-5.2-3.1-11-2-16.7.6-3.2,1.8-6.2,3.5-8.8-.1-.3-.2-.6-.3-1-1.1-.8-2.1-1.6-3-2.6-2.6,1.2-5.2,2-8,2.5,0,0,0,0-.1,0-.4,0-.8.1-1.2.2v58.1ZM491.2,442.6c1.5.6,2.9,1.3,4.3,2.1,1.6-6.8,4-12.8,7.1-17.8-2.8,1.3-5.8,2.1-9,2.3,0,2.1-.3,4.4-.8,6.8-.4,2.2-1,4.3-1.7,6.5ZM477.8,329.8c11.1,2.5,20.5,5.2,28,7.9,7.9,2.8,14.2,6.3,19.2,10.5,3.5-1.6,7.1-2.4,10.9-2.4s3.3.2,5,.5l5.1,1c2.2-5.5,6-10,11.2-12.9,1.2-.7,2.4-1.2,3.7-1.7-2.5-.9-4.8-2.3-6.7-4-2.7,1.1-5.6,1.8-8.5,1.8s-1.9,0-2.9-.2c-3.1-.4-6-1.4-8.4-3-1,.3-2.1.5-3.1.7-1.7.2-3.3.4-5,.4h-.5c-1.6,0-3.2-.1-4.8-.3-4.4-.6-8.6-1.9-12.5-4-1.7.5-3.5.7-5.4.7s-1.9,0-2.8-.2c-1.7-.2-3.4-.7-5.2-1.4-.8-.3-1.7-.7-2.5-1.2-.2-.1-1.2-.6-1.5-.7-2.7,1.2-5.7,1.8-8.7,1.8s-1.9,0-2.9-.2c-1.1-.1-2.2-.4-3.3-.7.9,2.4,1.4,5,1.5,7.6ZM242.5,339.3c1,.6,1.9,1.2,2.9,1.8,3.4-1.7,7.1-2.7,10.8-3.1.2-1.2.3-2.3.5-3.5-4.1,2.9-9,4.5-14.1,4.8ZM353.7,338c2,.2,3.9.6,5.7,1.2.3-1.7.7-3.6,1.1-5.7,0,0,0-.1,0-.1.2-.8.4-1.6.6-2.3,2.5-7.6,7.8-13.4,15-16.2,3.3-1.3,6.7-1.9,10-1.9s3.5.2,5.2.5c3.1.6,6.1,1.8,8.7,3.5,3.3.4,6.9.9,10.6,1.4,5.1.7,10.3,1.4,15.3,2.2.4,0,.9.1,1.3.2-4.6-1.5-8.7-4.3-11.8-8.2-1.9-2.4-3.3-5.1-4.2-8-4.2-3.3-7.5-7.5-9.6-12.4-2.4-5.6-3.2-11.5-2.4-17.5.8-6.4,3.3-12,7.2-16.8,2.3-2.8,5-5.2,8.1-7-2.7-1.8-5-4.1-6.8-6.8-1.9-2.8-3.3-5.8-4.1-8.9-.2.5-.3,1-.5,1.5-2.6,8.5-5.4,16.9-8.1,24.9-.1.4-.3.7-.4,1.1h0c-.1.4-.3.8-.4,1.1-2.7,5.7-6.9,10-12.1,12.6-3.6,1.7-7.4,2.6-11.3,2.6s-2.8-.1-4.2-.3c-.3,0-.7-.1-1-.2,4.2,5.1,6.4,11.2,6.4,17.8s-2.6,13.7-7.4,18.8c-3,3.2-6.7,5.6-10.8,7v16ZM561.1,265.4c1.4,0,2.9,0,4.3.3,6.4.9,12,3.3,16.7,7.1,3.5,3,6.4,6.7,8.3,10.9,3.7-4.7,8.6-8.4,14.3-10.5,4-1.5,8.2-2.3,12.7-2.3s3.6.1,5.4.4c6,.8,11.3,2.7,15.9,5.8,1.1-.2,2.1-.2,3.2-.2s1.9,0,2.8.2c3.6.5,6.9,1.8,9.8,3.9,1.4-.2,2.7-.2,4.1-.2s3.3.1,4.9.3c2,.3,4,.7,5.9,1.3.7-.3,1.5-.6,2.2-.9,1.3-.5,2.6-.9,3.9-1.2-9.2-2.5-17.2-5.9-23.8-10.2-6.8-4.4-12.1-10.1-15.8-16.7-1.1.4-2.2.8-3.4,1.2-3.2,1.1-6.4,2-9.7,2.9-3.3.9-6.3,1.6-8.8,2.2-3.6.8-6.4,1.1-8.9,1.1s-.7,0-.7,0c-1,0-1.9-.1-2.9-.3-3.6-.6-7-1.8-10.1-3.6-.3,0-.5,0-.8.1-.5,0-1.1.1-1.6.2-13.5.8-26.3,1.4-38.1,1.8-5.1.2-10.2.3-15.2.4,2.3.7,4.4,1.7,6.5,3,.7.4,1.3.8,1.9,1.2,1.1-.2,2.3-.3,3.5-.3s3.2.2,4.8.5c1.8.4,3.6,1,5.2,1.9,1.2-.1,2.3-.2,3.5-.2ZM505.1,260.5c.8,0,1.7,0,2.5.2.6,0,1.2.2,1.8.3.6-.3,1.3-.6,1.9-.8.6-.2,1.1-.4,1.7-.6-2.8,0-5.6,0-8.4,0,.2.4.3.7.5,1.1ZM417.7,170.3c-.4,4.9-1.1,10.2-2,16-1.1,6.7-2.6,13.9-4.5,21.4,4.9-4.9,11.4-7.6,18.4-7.6s2.8.1,4.2.3c6.5.7,13.9,1.3,22.1,1.8,8.5.5,17.1.9,25.6,1.2.7,0,1.4,0,2.1,0v-12.7h-19.6c-9,0-17-4-22-10.9-2.1-2.9-3.6-6-4.5-9.2-2.8,1-5.8,1.5-9.1,1.5s-7.3-.7-10.6-2ZM226,176.6c5.4,0,10.6,1.6,15,4.4.2-1.3.4-2.6.6-3.9-3.8-.3-7.6-1.3-11.2-3.2-.5-.3-1-.6-1.5-.9-4-2.5-7.2-5.7-9.4-9.6-.2.5-.4.9-.7,1.4-2.1,4.2-4.8,8.1-7.9,11.8h15.2ZM457.5,132.9c-.3,1.3-.6,2.5-.8,3.7,2.3-.6,4.8-.9,7.3-.9h19.6v-4.8h-25.6c-.2.7-.3,1.3-.5,2ZM219.6,125.1c1.1,2.1,2,4.4,2.7,6.7.7-1.4,1.4-2.9,2-4.4.1-.3.2-.5.3-.7-.7-.3-1.7-.6-2.8-.9-.7-.2-1.5-.4-2.2-.6Z"/>
  </g>
  <g id="_グループ_ロゴ文字新" data-name="&amp;lt;グループ&amp;gt;ロゴ文字新">
    <g>
      <path class="cls-4" d="M365.3,510.1c.3-4.6,3.5-7.7,8.2-7.4,4.7.3,7.4,3.9,7.1,8.5s-3.5,7.7-8.2,7.4-7.4-3.9-7.1-8.5ZM378.1,511c.2-3.4-1.8-5.8-4.8-6s-5.3,1.9-5.5,5.2,1.8,5.7,4.8,5.9,5.3-1.8,5.5-5.2ZM394.3,510.8c.2-2.7-1-4.3-3.4-4.4-2.6-.2-4.7,1.7-4.9,4.5l-.5,7.4c0,.7-.7,1.1-1.3,1-.6,0-1.2-.4-1.2-1.2l.9-13.4c0-.7.7-1,1.3-1,.6,0,1.2.4,1.1,1.1v1.3c.6-1.4,2.9-2.3,4.8-2.2,4.1.3,5.9,2.8,5.6,7l-.6,8.1c0,.7-.7,1-1.3,1s-1.2-.4-1.2-1.2l.6-8ZM408.1,506c.2-2.7,2.9-5.2,7.8-4.9,4,.3,6.9,2.5,6.8,3.8,0,.7-.7,1.4-1.4,1.3-.3,0-.6-.2-.9-.5-1-1.3-3-2.2-4.9-2.3-2.7-.2-4.7,1.1-4.8,2.7,0,.8.4,1.7,1.6,2.2,2,.9,5,1.4,7.4,2.5,2.5,1.2,3.5,3.1,3.3,5-.2,3.1-3.3,5.9-8.5,5.6-4.6-.3-7.7-3.1-7.6-4.5,0-.8.7-1.3,1.4-1.3.3,0,.6.2.9.5,1.3,1.8,3.5,2.8,5.6,2.9,2.8.2,5.2-1.2,5.4-3.2,0-1-.4-2.1-1.7-2.7-1.9-1-5.1-1.5-7.3-2.5-2.3-1-3.3-2.8-3.2-4.5ZM432.3,522.6c-4.5-.3-7.3-4.1-7-8.4.3-4.3,3.6-7.7,8.1-7.4,2.7.2,4.3.8,5.9,2.6.3.3.4.7.4,1,0,.7-.7,1.2-1.4,1.2-.3,0-.7-.2-.9-.5-.9-1.2-2.1-1.7-4-1.9-2.9-.2-5.2,2.2-5.4,5.2-.2,2.9,1.7,5.6,4.6,5.8,2,.1,3.3-.2,4.5-1.3.3-.3.7-.4,1-.4.7,0,1.3.7,1.2,1.4,0,1-2.2,3.1-6.9,2.8ZM453,514.9c.2-2.7-1-4.3-3.4-4.4-2.6-.2-4.7,1.7-4.9,4.5l-.5,7.4c0,.7-.7,1.1-1.3,1s-1.2-.5-1.2-1.2l1.3-18.3c0-.7.7-1.1,1.3-1,.6,0,1.2.4,1.2,1.2l-.4,6.1c.7-1.4,2.9-2.2,4.8-2.1,4.1.3,6,2.8,5.7,7l-.6,8.1c0,.7-.7,1-1.3,1-.6,0-1.2-.4-1.2-1.2l.6-8ZM458.2,516.5c.3-4.6,3.5-7.7,8.2-7.4,4.7.3,7.4,3.9,7.1,8.5s-3.5,7.7-8.2,7.4c-4.7-.3-7.4-3.9-7.1-8.5ZM471,517.4c.2-3.4-1.8-5.8-4.8-6-3-.2-5.3,1.9-5.5,5.2s1.8,5.7,4.8,5.9c3,.2,5.3-1.8,5.5-5.2ZM475.8,517.7c.3-4.6,3.5-7.7,8.2-7.4s7.4,3.9,7.1,8.5-3.5,7.7-8.2,7.4c-4.7-.3-7.4-3.9-7.1-8.5ZM488.7,518.6c.2-3.4-1.8-5.8-4.8-6-3-.2-5.3,1.9-5.5,5.2s1.8,5.7,4.8,5.9c3,.2,5.3-1.8,5.5-5.2ZM494.9,507.4c0-.7.7-1.1,1.4-1,.6,0,1.3.5,1.2,1.2l-1.3,18.2c0,.8-.7,1.2-1.4,1.1-.7,0-1.3-.5-1.2-1.3l1.3-18.2ZM510.6,527.8c-1.8-.1-2.7-1.1-2.6-2.9l1.1-16c0-.8.8-1.1,1.4-1.1.7,0,1.3.5,1.2,1.3l-1.1,15.3c0,.6.3.9.8.9l9.8.7c.8,0,1.2.7,1.2,1.4,0,.6-.5,1.2-1.4,1.2l-10.5-.7ZM525.6,514.5c0-.7.7-1,1.3-1,.6,0,1.2.4,1.2,1.2l-.9,13.3c0,.8-.7,1.1-1.3,1.1-.6,0-1.2-.5-1.2-1.2l.9-13.3ZM527,512.2c-.9,0-1.6-.9-1.6-1.8,0-.9.9-1.6,1.8-1.6.9,0,1.6.9,1.6,1.8,0,.9-.9,1.6-1.8,1.6ZM533.8,516.4l-2.5-.2c-.7,0-1.1-.6-1-1.2,0-.5.5-1.1,1.2-1l2.5.2v-.3c.4-3.7,3-4.9,5.7-4.7,1.1,0,2.5.3,2.5,1.4,0,.6-.6,1.2-1.3,1.1,0,0-.2,0-.3,0-.3,0-.6-.1-.9-.1-1.5-.1-2.9.6-3.1,2.6v.3s4.2.3,4.2.3c.8,0,1.2.6,1.1,1.2,0,.6-.5,1.1-1.3,1l-4.2-.3-.8,12c0,.8-.7,1.1-1.3,1-.6,0-1.2-.4-1.2-1.2l.8-12ZM557.8,522c-.1,1.7-1.2,1.9-2.2,1.8l-10.4-.7c0,2.2,1.3,5,5,5.3,1.6.1,3.3-.3,4.7-1.2.2-.2.5-.2.7-.2.6,0,1.2.7,1.1,1.4-.1,1.5-3.9,2.6-6.5,2.4-4.6-.3-7.8-3.7-7.5-8.4.3-4.7,3.8-7.7,8.1-7.4,3.9.3,6.9,3.1,6.9,6.9h0ZM554.9,521.6c.3,0,.4-.1.4-.3,0-.7-.9-3.8-4.6-4.1-2.8-.2-4.7,1.5-5.3,3.7l9.5.7Z"/>
      <path class="cls-6" d="M164.7,463.2c.2-2.7,2.9-5.2,7.8-4.9,4,.3,6.9,2.5,6.8,3.8,0,.7-.7,1.4-1.4,1.3-.3,0-.6-.2-.9-.5-1-1.3-3-2.2-4.9-2.3-2.7-.2-4.7,1.1-4.8,2.7,0,.8.4,1.7,1.6,2.2,2,.9,5,1.4,7.4,2.5,2.5,1.2,3.5,3.1,3.3,5-.2,3.1-3.3,5.9-8.5,5.6-4.6-.3-7.7-3.1-7.6-4.5,0-.8.7-1.3,1.4-1.3.3,0,.6.2.9.5,1.3,1.8,3.5,2.8,5.6,2.9,2.8.2,5.2-1.2,5.4-3.2,0-1-.4-2.1-1.7-2.7-1.9-1-5.1-1.5-7.3-2.5-2.3-1-3.3-2.8-3.2-4.5ZM183,464.8c0-.7.7-1,1.3-1,.6,0,1.2.4,1.2,1.1v1.3c1.2-1.5,2.9-2.2,5.2-2.1,4.2.3,6.8,3.8,6.5,8.3-.3,4.5-3.4,7.7-7.6,7.4-2.3-.2-3.9-1-4.9-2.8l-.5,7.1c0,.8-.7,1.1-1.3,1.1s-1.2-.5-1.2-1.3l1.3-19.2ZM194.7,472.3c.2-3.2-1.6-5.6-4.2-5.8-3.3-.2-5.3,1.9-5.6,5.2-.2,3.2,1.6,5.7,4.8,5.9,2.7.2,4.8-2.1,5-5.2ZM214.4,472.2c-.1,1.7-1.2,1.9-2.2,1.8l-10.4-.7c0,2.2,1.3,5,5,5.3,1.6.1,3.3-.3,4.7-1.2.2-.2.5-.2.7-.2.6,0,1.2.7,1.1,1.4-.1,1.5-3.9,2.6-6.5,2.4-4.6-.3-7.8-3.7-7.5-8.4.3-4.7,3.8-7.7,8.1-7.4,3.9.3,6.9,3.1,6.9,6.9h0ZM211.6,471.9c.3,0,.4-.1.4-.3,0-.7-.9-3.8-4.6-4.1-2.8-.2-4.7,1.5-5.3,3.7l9.5.7ZM223.5,482.1c-4.5-.3-7.3-4.1-7-8.4.3-4.3,3.6-7.7,8.1-7.4,2.7.2,4.3.8,5.9,2.6.3.3.4.7.4,1,0,.7-.7,1.2-1.4,1.2-.3,0-.7-.2-1-.5-.9-1.2-2.1-1.7-4-1.9-2.9-.2-5.2,2.2-5.4,5.2s1.7,5.6,4.6,5.8c2,.1,3.3-.2,4.5-1.3.3-.3.7-.4,1-.4.7,0,1.3.7,1.2,1.4,0,1-2.2,3.1-6.9,2.8ZM233.8,468.4c0-.7.7-1,1.3-1,.6,0,1.2.4,1.2,1.2l-.9,13.3c0,.8-.7,1.1-1.3,1.1-.6,0-1.2-.5-1.2-1.2l.9-13.3ZM235.2,466c-.9,0-1.6-.9-1.6-1.8,0-.9.9-1.6,1.8-1.6.9,0,1.6.9,1.6,1.8,0,.9-.9,1.6-1.8,1.6ZM252.5,474.3c0,.8-.2,1.8-.2,2.8,0,.4,0,.9-.1,1.3-.2,3.1,0,3.6.2,3.9.1.2.2.5.1.7,0,.7-.7,1.1-1.4,1.1-.6,0-1.3-.6-1.3-2.2-1.3,1.4-3.6,2-5.5,1.8-4-.3-5.9-2.8-5.8-5.2,0-1.1.6-2.3,1.7-3.1,1.6-1.3,4.3-1.3,6.5-1.4,3.2,0,3.4-.5,3.4-.9.1-2-1.8-2.8-3.6-2.9-1.6-.1-2.9.2-4.2,1.1-.3.2-.6.3-.9.3-.7,0-1.3-.7-1.3-1.3,0-.3.2-.6.6-.9,1.8-1.2,3.6-1.4,5.9-1.3,4.3.3,6.1,2.6,5.8,6.2h0ZM249.9,477.7c0-.5.1-1.1.2-1.9-.9.5-2.3.5-3.6.5-1.6,0-3.6-.1-4.7.8-.5.4-.7.9-.8,1.5,0,1.2.9,2.6,3.5,2.8,3.2.2,5.2-1.6,5.4-3.6h0ZM256.5,464.9c0-.7.7-1.1,1.4-1,.6,0,1.3.5,1.2,1.2l-1.3,18.2c0,.8-.7,1.2-1.4,1.1-.7,0-1.3-.5-1.2-1.3l1.3-18.2ZM270.8,466.3c0-.8.8-1.1,1.4-1,.7,0,1.3.5,1.3,1.2l-1.2,17.8c0,.7-.7,1.1-1.4,1-.7,0-1.3-.5-1.3-1.2l1.2-17.8ZM287.5,477.4c.2-2.7-1-4.3-3.4-4.4-2.6-.2-4.7,1.7-4.9,4.5l-.5,7.4c0,.7-.7,1.1-1.3,1-.6,0-1.2-.4-1.2-1.2l.9-13.4c0-.7.7-1,1.3-1,.6,0,1.2.4,1.1,1.1v1.3c.6-1.4,2.9-2.3,4.8-2.2,4.1.3,5.9,2.8,5.6,7l-.6,8.1c0,.7-.7,1-1.3,1-.6,0-1.2-.4-1.2-1.2l.6-8ZM295.3,473.9h-1.9c-.7-.2-1.1-.8-1-1.4,0-.6.5-1.1,1.2-1h1.9c0,.1.2-3.1.2-3.1,0-.8.7-1.1,1.3-1.1.6,0,1.2.5,1.2,1.3l-.2,3.2,3.9.3c.8,0,1.2.7,1.1,1.2,0,.6-.5,1.1-1.3,1.1l-3.9-.3-.6,9.4c0,1,.5,1.4,1.2,1.5.7,0,1.5-.2,2.1-.5.2-.1.5-.2.7-.1.7,0,1.1.7,1.1,1.3,0,1.3-2.7,1.8-4.2,1.7-2-.1-3.7-1.2-3.5-3.9l.7-9.5ZM319.2,479.4c-.1,1.7-1.2,1.9-2.2,1.8l-10.4-.7c0,2.2,1.3,5,5,5.3,1.6.1,3.3-.3,4.7-1.2.2-.2.5-.2.7-.2.6,0,1.2.7,1.1,1.4-.1,1.5-3.9,2.6-6.5,2.4-4.6-.3-7.8-3.7-7.5-8.4.3-4.7,3.8-7.7,8.1-7.4,3.9.3,6.9,3.1,6.9,6.9h0ZM316.4,479.1c.3,0,.4-.1.4-.3,0-.7-.9-3.8-4.6-4.1-2.8-.2-4.7,1.5-5.3,3.7l9.5.7ZM322.4,474.4c0-.7.7-1,1.3-1,.6,0,1.2.4,1.1,1v.9c.5-.7,2-1.8,4.7-1.6,1.1,0,2.2.5,2.7.7.7.3.9.8.8,1.3,0,.6-.5,1.2-1.2,1.1-.1,0-.2,0-.4,0-.3-.2-1.3-.6-2.3-.7-3.3-.2-4.7,1.6-4.8,4.1l-.5,7.6c0,.7-.7,1.1-1.3,1-.6,0-1.2-.5-1.2-1.2l.9-13.3ZM349.4,481.5c-.1,1.7-1.2,1.9-2.2,1.8l-10.4-.7c0,2.2,1.3,5,5,5.3,1.6.1,3.3-.3,4.7-1.2.2-.2.5-.2.7-.2.6,0,1.2.7,1.1,1.4-.1,1.5-3.9,2.6-6.5,2.4-4.6-.3-7.8-3.7-7.5-8.4.3-4.7,3.8-7.7,8.1-7.4,3.9.3,6.9,3.1,6.9,6.9h0ZM346.5,481.2c.3,0,.4-.1.4-.3,0-.7-.9-3.8-4.6-4.1-2.8-.2-4.7,1.5-5.3,3.7l9.5.7ZM357.1,491.3c-3.9-.3-6.3-2.4-6.2-3.6,0-.7.7-1.2,1.3-1.1.3,0,.6.2.8.5.9,1.2,2.7,2,4.4,2.1,2.6.2,3.9-1,4-2.2,0-.7-.3-1.4-1.2-1.9-1.6-.9-4-1.1-5.8-1.9-1.9-.8-2.7-2.3-2.6-3.7.2-2.5,2.8-4.1,6.3-3.9,3.3.2,5.7,2,5.6,3.1,0,.6-.7,1.2-1.3,1.1-.3,0-.5-.1-.8-.4-.8-.9-2.3-1.6-3.8-1.7-2.2-.2-3.5.8-3.6,1.8,0,.6.3,1.2,1.1,1.5,1.7.8,3.9,1,5.9,1.9,2,.9,2.8,2.5,2.7,3.9-.1,2.2-2.2,4.6-6.8,4.3ZM368.7,479h-1.9c-.7-.2-1.1-.8-1-1.4,0-.6.5-1.1,1.2-1h1.9c0,.1.2-3.1.2-3.1,0-.8.7-1.1,1.3-1.1.6,0,1.2.5,1.2,1.3l-.2,3.2,3.9.3c.8,0,1.2.7,1.1,1.2,0,.6-.5,1.1-1.3,1.1l-3.9-.3-.6,9.4c0,1,.5,1.4,1.2,1.5.7,0,1.5-.2,2.1-.5.2-.1.5-.2.7-.1.7,0,1.1.7,1.1,1.3,0,1.3-2.7,1.8-4.2,1.7-2-.1-3.7-1.2-3.5-3.9l.7-9.5ZM395.9,485.7c-.8,0-1.2-.7-1.2-1.4,0-.6.5-1.2,1.3-1.2l6.1.4c1.8.1,2.7,1.1,2.6,2.7-.2,3.5-3.1,8.3-10,7.9-5.7-.4-9.7-4.9-9.2-11.1.4-5.8,5-9.8,10.6-9.4,2.9.2,5.5,1.2,7.5,3.5.2.3.3.6.3.9,0,.7-.8,1.4-1.6,1.3-.3,0-.6-.2-.8-.4-1.8-2.1-3.4-2.6-5.6-2.8-3.8-.3-7.4,2.6-7.8,7.2-.3,5,2.7,8.1,6.7,8.4,5.5.4,7-3.6,7.1-4.9,0-.3,0-.5-.5-.6l-5.6-.4ZM407.8,480.3c0-.7.7-1,1.3-1,.6,0,1.2.4,1.1,1v.9c.5-.7,2-1.8,4.7-1.6,1.1,0,2.2.5,2.7.7.7.3.9.8.8,1.3,0,.6-.5,1.2-1.2,1.1-.1,0-.2,0-.4,0-.3-.2-1.3-.6-2.3-.7-3.3-.2-4.7,1.6-4.8,4.1l-.5,7.6c0,.7-.7,1.1-1.3,1-.6,0-1.2-.5-1.2-1.2l.9-13.3ZM419.8,487.8c.3-4.6,3.5-7.7,8.2-7.4,4.7.3,7.4,3.9,7.1,8.5-.3,4.6-3.5,7.7-8.2,7.4-4.7-.3-7.4-3.9-7.1-8.5ZM432.6,488.6c.2-3.4-1.8-5.8-4.8-6-3-.2-5.3,1.9-5.5,5.2-.2,3.4,1.8,5.7,4.8,5.9,3,.2,5.3-1.8,5.5-5.2ZM448.1,495.3c-.7,1.3-2.7,2.1-4.8,2-3.9-.3-5.8-2.7-5.5-6.8l.6-8.1c0-.7.7-1.1,1.3-1,.6,0,1.2.4,1.2,1.2l-.6,8c-.2,2.7,1,4.1,3.2,4.2,2.6.2,4.5-1.4,4.7-4.2l.5-7.5c0-.7.7-1.1,1.3-1,.6,0,1.2.5,1.2,1.2l-.9,13.2c0,.7-.7,1-1.3,1-.6,0-1.2-.4-1.1-1v-1.2ZM454.8,483.5c0-.7.7-1,1.3-1,.6,0,1.2.4,1.2,1.1v1.3c1.2-1.5,2.9-2.2,5.2-2.1,4.2.3,6.8,3.8,6.5,8.3-.3,4.5-3.4,7.7-7.6,7.4-2.3-.2-3.9-1-4.9-2.8l-.5,7.1c0,.8-.7,1.1-1.3,1.1-.6,0-1.2-.5-1.2-1.3l1.3-19.2ZM466.5,491c.2-3.2-1.6-5.6-4.2-5.8-3.3-.2-5.3,1.9-5.6,5.2-.2,3.2,1.6,5.7,4.8,5.9,2.7.2,4.8-2.1,5-5.2Z"/>
    </g>
    <g class="cls-1">
      <g>
        <path class="cls-4" d="M658,474.5c-163.9-29.2-197-228.4-378-291-92.6-32-237.9-33.1-465,114v297.5H1015v-296.5c-91.2,94.3-223,199.9-357,176Z"/>
        <path class="cls-6" d="M-185-5v302.5C42.1,150.4,187.4,151.5,280,183.5c181,62.6,214.1,261.8,378,291,134,23.9,265.8-81.7,357-176V-5H-185Z"/>
      </g>
    </g>
  </g>
</svg>